<!-- Generated by IcoMoon.io -->
<svg version="1.1" xmlns="http://www.w3.org/2000/svg" width="6324" height="1024" viewBox="0 0 6324 1024">
<title></title>
<g id="icomoon-ignore">
</g>
<path fill="#fff" d="M1211.002 224.807v113.055h-77.189v-332.522c14.789 0 31.035-0.161 48.726-0.477 18.006-0.316 36.177-0.477 54.51-0.477 47.599 0 82.335 10.45 104.2 31.354 21.553 20.269 32.329 46.552 32.329 78.853 0 31.038-11.418 57.479-34.259 79.334-22.833 21.531-53.065 32.301-90.691 32.301-16.726 0-29.27-0.473-37.626-1.42zM1244.762 75.64c-0.319 0-1.764 0.161-4.332 0.477-2.578 0-6.591 0.161-12.060 0.477-5.465 0-11.257 0-17.368 0v76.002c13.506 1.589 25.243 2.378 35.216 2.378 13.186 0 23.963-3.324 32.319-9.977 8.679-6.968 13.025-17.257 13.025-30.877 0-25.648-15.593-38.48-46.8-38.48z"></path>
<path fill="#fff" d="M1412.761 171.599c0-49.084 16.568-89.942 49.683-122.558 33.456-32.936 76.712-49.403 129.777-49.403 52.749 0 95.679 15.675 128.802 47.029 33.775 31.35 50.658 72.997 50.658 124.932 0 50.038-17.045 91.208-51.139 123.508-33.764 32.308-76.547 48.457-128.321 48.457-52.423 0-95.518-15.679-129.296-47.029-33.434-31.354-50.164-72.997-50.164-124.936zM1494.777 171.599c0 28.187 9.482 52.097 28.456 71.731 18.659 19.319 41.646 28.976 68.987 28.976 30.873 0 54.833-9.342 71.882-28.022 17.049-19.322 25.566-43.547 25.566-72.685 0-30.085-9.335-54.309-27.987-72.681-18.975-18.684-42.131-28.026-69.461-28.026-28.302 0-51.623 9.342-69.956 28.026-18.329 18.688-27.488 42.912-27.488 72.681z"></path>
<path fill="#fff" d="M2196.995 5.34h74.288l-95.027 332.522h-73.818l-70.426-213.765-69.475 213.765h-73.807l-99.865-332.522h87.324l56.92 209.964 63.207-209.964h77.666l65.114 209.964z"></path>
<path fill="#fff" d="M2526.006 337.862h-205.026v-332.522h200.199v71.254h-123.024v58.43h108.543v71.254h-108.543v60.327h127.851z"></path>
<path fill="#fff" d="M2681.92 221.479v116.383h-77.189v-332.522c18.329 0 38.587-0.161 60.782-0.477s40.208-0.477 54.033-0.477c83.296 0 124.95 35.467 124.95 106.406 0 45.606-18.975 77.591-56.934 95.959l98.423 131.111h-93.596l-82.016-116.383h-28.453zM2715.68 75.64c-0.319 0-1.768 0.161-4.332 0.477-2.578 0-6.602 0.161-12.064 0.477-5.465 0-11.257 0-17.364 0v73.628h27.972c35.059 0 52.584-12.824 52.584-38.476 0-24.067-15.604-36.106-46.796-36.106z"></path>
<path fill="#fff" d="M3140.625 337.862h-205.026v-332.522h200.199v71.254h-123.021v58.43h108.54v71.254h-108.54v60.327h127.848z"></path>
<path fill="#fff" d="M3227.547 337.862h-8.198v-332.522h6.753c14.467 0 30.554-0.161 48.241-0.477 6.753 0 14.148 0 22.195 0 8.356-0.316 14.793-0.477 19.294-0.477 4.504-0.316 7.875-0.473 10.127-0.473 63.357 0 110.799 15.517 142.314 46.552 31.512 31.038 47.277 70.465 47.277 118.287 0 49.084-16.887 89.78-50.648 122.085-33.452 31.985-81.051 47.98-142.798 47.98-12.541 0-26.541-0.161-41.973-0.477-15.442-0.319-32.968-0.477-52.584-0.477zM3324.991 75.166c-12.541 0-22.019 0.473-28.453 1.427v190.011c8.998 0.635 18.333 0.954 27.972 0.954 34.097 0 60.782-8.707 80.090-26.125 19.294-17.418 28.933-41.646 28.933-72.681 0-29.457-9.801-52.412-29.428-68.88-19.616-16.471-45.982-24.705-79.115-24.705z"></path>
<path fill="#fff" d="M3687.458 336.912v-330.625c37.623-1.901 71.706-2.851 102.271-2.851 37.307 0 65.441 7.445 84.422 22.328 19.294 14.567 28.937 34.678 28.937 60.327 0 32.62-12.86 57.322-38.591 74.109v0.954c14.47 5.379 26.050 14.567 34.739 27.546 8.998 12.989 13.506 29.138 13.506 48.457 0 33.251-11.899 58.745-35.7 76.483-23.479 17.418-54.352 26.125-92.62 26.125-44.713 0-77.028-0.947-96.963-2.851zM3794.541 203.426h-29.909v62.231c7.090 1.901 15.765 2.851 26.057 2.851 29.912 0 44.863-11.72 44.863-35.155 0-19.95-13.663-29.927-41.012-29.927zM3788.753 74.693c-5.788 0-13.825 0.631-24.121 1.901v60.327h25.577c23.802 0 35.7-10.766 35.7-32.301 0-9.181-3.54-16.471-10.615-21.851-7.072-5.386-15.926-8.076-26.541-8.076z"></path>
<path fill="#fff" d="M4180.089 5.34h83.454l-119.635 197.14v135.382h-77.193v-135.382l-118.663-197.14h88.274l72.362 125.882z"></path>
<path fill="#fff" d="M1133.809 459.344h420.753v135.156h-274.487v73.456h226.518v135.156h-226.518v77.77h277.89v134.238h-424.153v-555.777h-0.004zM1731.54 1015.121h-152.277l230.050-555.777h121.425l229.921 555.777h-152.933l-32.545-82.084h-211.226l-32.416 82.084zM1870.093 667.956l-54.768 136.853h109.404l-54.636-136.853zM2565.989 588.486l-145.348 26.534c-2.876-9.801-9.543-17.906-20.129-24.44-10.454-6.534-22.611-9.805-36.335-9.805-14.244 0-25.882 3.009-35.030 9.023-9.148 5.881-13.721 13.721-13.721 23.393 0 9.805 8.367 19.477 24.834 29.149 8.625 3.92 21.435 8.499 38.426 13.724l51.369 15.288c43.264 13.724 78.685 31.11 106.004 52.158 36.472 27.32 54.772 67.575 54.772 120.643 0 54.636-19.477 98.294-58.168 130.713-38.82 32.545-89.142 48.754-151.362 48.754-57.512 0-107.18-13.99-148.748-41.829-42.74-29.149-69.536-65.62-80.384-109.537l148.748-28.101c3.396 13.595 12.681 25.1 27.843 34.51 15.030 9.407 32.936 14.115 53.459 14.115 17.648 0 32.416-3.4 44.436-10.196 11.895-6.929 17.906-15.428 17.906-25.623 0-15.424-28.754-32.021-86.395-49.669-6.799-2.22-11.895-3.92-15.292-5.096-39.868-13.068-71.501-26.796-94.894-41.040-49.669-29.149-75.816-74.374-78.688-135.938 0-51.889 17.648-93.718 52.936-125.61 35.948-32.545 82.084-48.887 138.552-48.887 51.369 0 95.812 12.939 133.32 38.559 38.3 25.623 62.217 58.692 71.889 99.208zM2755.784 784.288l-204.298-324.944h167.568l109.404 188.092 115.418-188.092h166.786l-208.612 321.548v234.232h-146.263v-230.829l-0.004-0.007zM3141.375 459.344h263.38c59.344 0 109.146 18.559 149.666 55.554 39.868 36.468 59.864 82.741 59.864 138.549 0 34.772-8.367 66.531-24.834 95.289-16.6 28.754-39.344 51.763-68.363 68.887l112.022 197.502h-162.476l-95.812-166.786h-87.184v166.786h-146.263v-555.78zM3404.755 594.5h-117.114v119.599h117.114c16.604 0 30.325-5.62 41.438-17.124 11.11-11.372 16.73-25.882 16.73-43.529 0-16.6-5.62-30.457-16.73-41.958-11.114-11.372-24.834-16.995-41.438-16.995v0.007zM3933.216 450.719c83.131 0 152.668 27.449 208.612 82.084 56.339 54.768 84.569 122.866 84.569 204.427 0 81.432-28.23 149.53-84.569 204.298-55.945 54.768-125.481 82.084-208.612 82.084-83.917 0-153.977-27.32-210.308-82.084-55.945-54.768-83.917-122.866-83.917-204.298 0-81.561 27.972-149.666 83.917-204.427 56.339-54.636 126.399-82.084 210.308-82.084zM3792.053 736.32c0 41.693 13.463 76.723 40.259 105.219 26.143 27.972 59.864 41.829 100.905 41.829 40.391 0 73.721-13.857 99.997-41.829 27.32-27.972 41.040-63.002 41.040-105.219 0-39.868-13.721-74.116-41.040-102.604-26.796-28.496-60.13-42.611-99.997-42.611-41.040 0-74.765 13.853-100.905 41.829-26.796 28.492-40.259 63.002-40.259 103.39v-0.004zM4561.67 450.719c60.388 0 114.238 14.901 161.558 44.573 47.84 29.669 83.522 69.278 106.919 118.81l-142.867 52.158c-11.895-23.396-28.887-41.829-50.845-55.159-21.958-13.333-46.922-19.997-74.765-19.997-41.044 0-74.768 13.853-100.908 41.829-26.796 28.492-40.259 63.002-40.259 103.39 0 41.697 13.463 76.726 40.259 105.222 26.143 27.972 59.864 41.826 100.908 41.826 27.843 0 52.807-6.663 74.765-19.997 21.962-13.463 38.95-31.763 50.845-55.159l142.867 52.158c-22.873 50.060-58.297 89.927-106.531 119.205-48.098 29.41-102.217 44.049-161.952 44.049-83.917 0-153.977-27.32-210.445-82.084-55.815-54.768-83.781-122.866-83.781-204.298 0-81.561 27.972-149.662 83.781-204.427 56.468-54.636 126.528-82.084 210.445-82.084v0l0.007-0.014zM4871.976 1015.121v-555.777h146.259v200.116l155.547-200.116h184.696l-211.226 270.962 227.432 284.819h-184.692l-171.757-215.541v215.541l-146.259-0.004zM5405.532 459.344h420.624v135.156h-274.487v73.456h226.651v135.156h-226.651v77.77h277.89v134.238h-424.024v-555.777h-0.004zM6019.344 594.5h-157.247v-135.156h460.882v135.156h-157.373v420.624h-146.263v-420.624z"></path>
<path fill="#434242" d="M203.032 675.591l0.043 0.018h0.233l24.92 22.826c8.388 7.689 12.81 11.644 17.239 15.833 4.429 3.959 8.155 8.159 16.073 16.077l33.531 34.011c7.685 7.915 11.644 11.874 15.833 16.303 3.73 3.726 7.689 8.618 15.604 17.468 3.489 3.959 8.148 9.317 22.36 25.154 5.121 11.411-2.797 26.556-10.253 41.227v0.23l-3.726 7.226c-18.63 37.967-70.573 80.829-104.814 98.527-7.918 4.199-14.442 6.753-19.563 7.456-1.861 0.463-2.564 1.625-2.794 1.162-0.463-1.402 0.699-4.892 3.726-11.415l23.289-45.885-35.403 37.268c-21.897 22.819-51.469 42.622-72.204 50.307v0c-5.591 1.865-10.249 3.027-13.509 3.027-1.169 0-1.402 0.463-1.632 0.23v0c-0.24-0.47 0-1.402 0.463-3.497l4.189-16.073-14.911 7.456c-31.447 15.374-58.462 14.442-92.707 13.28h-1.162v-0.932c-0.703-34.474-1.162-61.492 14.671-92.707l7.685-14.911-16.303 3.959c-1.865 0.463-3.038 0.692-3.497 0.463-0.233 0 0.23-0.47 0.23-1.635 0-3.256 1.162-7.915 3.256-13.509 8.159-20.491 28.191-50.074 51.48-71.268l37.73-34.937-46.348 22.36c-6.294 3.267-10.020 4.189-11.415 3.726-0.47-0.23 0.932-0.932 1.162-2.794 0.932-4.892 3.73-11.648 7.918-19.333 18.168-34.011 61.951-85.251 100.151-103.418l7.226-3.497c14.911-7.456 30.282-14.901 41.227-9.78zM207.45 669.305c-16.765-9.077-37.268 3.5-56.127 12.577-68.475 32.609-153.026 165.603-91.304 135.791-43.092 39.592-75.93 106.904-44.254 98.986-17.938 35.177-16.073 64.519-15.37 103.182l-0.463 0.459-0.932 0.932h1.395v1.395l0.699-1.162 0.463-0.233c38.899 1.162 68.012 3.256 103.648-13.979-8.618 31.677 59.165-0.463 99.459-42.859-30.744 61.489 103.418-21.427 136.96-89.21 9.321-18.871 22.356-39.132 13.509-56.127-49.375-55.668-29.113-34.245-71.501-77.096-42.392-42.859-21.194-22.356-76.163-72.671v0l-0.018 0.014z"></path>
<path fill="#ee682c" d="M207.45 669.305c-16.765-9.077-37.268 3.5-56.127 12.577-68.475 32.609-153.026 165.603-91.304 135.791-43.092 39.592-75.93 106.904-44.254 98.986-17.938 35.177-16.073 64.519-15.37 103.182l-0.463 0.459-0.932 0.932h1.395v1.395l0.699-1.162 0.463-0.233c38.899 1.162 68.012 3.256 103.648-13.979-8.618 31.677 59.165-0.463 99.459-42.859-30.744 61.489 103.418-21.427 136.96-89.21 9.321-18.871 22.356-39.132 13.509-56.127-49.375-55.668-29.113-34.245-71.501-77.096-42.392-42.859-21.194-22.356-76.163-72.671v0l-0.018 0.014z"></path>
<path fill="#434242" d="M197.9 683.979l40.997 37.25 64.749 65.918 36.798 41.227c2.094 7.215-4.189 19.792-10.482 31.91l-3.73 7.456c-17.935 35.865-67.549 77.092-100.621 94.098l-0.463 0.463 47.513-94.561-80.359 84.777c-20.495 21.427-47.983 39.825-67.546 47.28l6.523-24.451-33.771 16.536c-27.015 13.036-51.006 13.506-80.119 12.577-0.47-29.346 0.23-53.334 13.739-80.123l17.006-33.771-24.691 6.294c7.918-19.333 26.778-46.581 48.442-66.613l85.251-78.724-94.561 45.656 0.23-0.23c17.468-32.849 59.398-81.995 95.963-99.463l7.226-3.497c12.107-6.053 24.684-12.336 31.906-10.009zM207.45 669.305c-16.765-9.077-37.268 3.5-56.127 12.577-68.475 32.609-153.026 165.603-91.304 135.791-43.092 39.592-75.93 106.904-44.254 98.986-17.938 35.177-16.073 64.519-15.37 103.182l-1.395 1.391h1.395v1.395l1.162-1.395c38.899 1.162 68.012 3.256 103.648-13.979-8.618 31.677 59.165-0.463 99.459-42.859-30.744 61.489 103.418-21.427 136.96-89.21 9.321-18.871 22.356-39.132 13.509-56.127-49.375-55.668-29.113-34.245-71.501-77.096-42.392-42.859-21.194-22.356-76.163-72.671v0l-0.018 0.014z"></path>
<path fill="#5b5b5b" d="M411.494 789.951l-36.106 23.992c-16.536 10.712-37.501 11.644-54.736 2.324v0c-51.48-27.718-94.331-68.944-124.143-119.251-9.783-17.006-9.783-37.971 0.459-54.736l22.36-37.268 192.166 184.94z"></path>
<path fill="#434242" d="M393.086 791.353l-22.83 14.911c-10.013 6.756-21.894 8.851-33.309 6.523-9.080-5.121-17.938-10.712-26.556-16.765 9.317-0.463 18.867-3.256 27.015-8.618l21.897-14.442c10.945 6.756 22.127 12.81 33.771 18.401l0.011-0.011z"></path>
<path fill="#c5c6c6" d="M310.399 796.015c-2.324 0.23-4.429 0-6.753 0-47.28-28.65-60.56-42.622-99.223-103.652-8.385-13.979-8.385-31.444 0.233-45.415l13.979-23.289c1.865 3.256 3.497 6.523 5.361 9.55l-5.121 8.618c-10.253 16.765-10.253 37.971-0.233 54.736 18.63 31.906 60.097 77.333 91.774 99.459v0l-0.018-0.007z"></path>
<path fill="#f91228" d="M70.963 608.978c24.221-6.053 136.96-36.106 181.214 9.55l40.294-109.009c-2.564-2.094-5.121-3.959-7.918-5.591v-0.23c-41.227-25.856-126.237-34.937-214.282 98.527-0.703 0.932-1.162 2.094-1.865 3.027-1.395 1.865 0.463 4.189 2.564 3.726v0h-0.007z"></path>
<path fill="#dc132c" d="M212.342 588.716c-27.488-6.053-67.080-6.053-124.383 6.986 0.932-1.162 1.865-2.564 3.027-3.73 26.556-10.249 66.151-18.63 95.733-18.168 11.415 0.233 20.732-1.632 29.582-5.82-1.865 8.148-3.027 15.141-3.959 20.732z"></path>
<path fill="#434242" d="M257.768 625.284c-3.497 3.256-8.851 2.794-12.114-0.463-14.911-15.374-56.83-36.798-171.194-7.456l-1.162 0.463c-4.662 1.162-9.321-0.703-12.118-4.429-2.794-3.959-3.027-9.080-0.459-13.047 46.115-70.809 95.963-111.107 148.371-119.485 46.118-7.685 77.566 12.577 88.98 21.427 3.956 3.256 4.429 8.847 1.391 12.806-3.027 3.726-8.847 4.429-12.577 1.391-9.55-7.452-35.865-24.451-74.768-17.935-43.092 6.982-86.872 40.757-126.937 97.824 106.212-24.691 152.793-5.358 173.285 15.837 3.497 3.726 3.26 9.317-0.23 12.806-0.23 0.23-0.23 0.23-0.463 0.23l-0.007 0.029z"></path>
<path fill="#d25658" d="M508.618 717.517c31.214 36.339 57.060 128.805-85.018 229.426-1.865 1.395-4.429-0.23-3.959-2.564 5.121-24.221 28.88-140.216-18.63-182.376l107.607-44.487z"></path>
<path fill="#f91228" d="M423.6 946.944c-1.865 1.395-4.429-0.23-3.959-2.564 2.564-12.347 10.249-48.916 10.482-87.345 0.23-36.106-5.824-73.836-28.65-94.561 0-0.23-0.233-0.463-0.463-0.463l0.699-0.23 106.908-44.254c8.851 10.249 17.235 24.92 21.427 42.859 11.182 46.118-4.192 114.13-106.445 186.564v0-0.007z"></path>
<path fill="#c8142f" d="M479.265 823.962c-11.411 9.55-24.92 19.1-40.294 28.18 0-19.563-2.094-39.132-7.456-56.368 18.63-3.959 50.307-12.114 90.601-29.113 0.463 2.094 0.932 4.189 1.166 6.523-10.013 17.006-24.225 34.004-44.024 50.777v0h0.007z"></path>
<path fill="#434242" d="M458.774 931.34c-9.321 7.685-19.333 15.374-30.045 23.059-3.959 2.797-9.080 2.797-13.047 0-3.959-2.564-5.824-7.226-4.892-11.877 6.756-31.444 25.856-136.957-15.833-173.987-3.497-3.256-3.959-8.847-0.463-12.577 3.26-3.726 8.851-3.959 12.577-0.699 42.159 37.73 33.542 125.305 24.694 174.687 54.503-41.686 86.18-86.642 91.534-130.204 5.358-41.689-15.144-68.944-21.427-76.4-3.256-3.73-2.797-9.321 0.932-12.806 3.726-3.26 9.55-2.568 12.806 1.162 9.55 11.182 31.447 42.618 25.623 90.372-5.591 44.483-33.309 87.804-82.454 129.271v0h-0.007z"></path>
<path fill="#f91228" d="M970.254 17.138c0 0 68.016 243.635-162.11 518.477-196.347 234.081-396.661 254.347-396.661 254.347-68.012-29.582-125.775-78.265-166.302-139.517-9.78-14.438-18.168-29.582-25.853-45.415 0 0 3.256-49.615 34.241-125.075 12.114-29.582 28.65-63.124 51.010-99.219 35.173-56.368 84.318-118.792 153.726-181.676 3.956-3.497 7.915-6.982 11.874-10.249 16.536-14.671 33.072-28.18 49.615-40.528 241.071-180.973 450.461-131.136 450.461-131.136v0-0.007z"></path>
<path fill="#727271" d="M931.362 336.463c-72.904-108.077-167.934-199.611-278.797-268.319 131.595-61.030 240.135-60.327 289.28-55.199 17.468 1.635 31.218 14.911 33.771 32.139 6.756 49.145 11.877 157.455-44.254 291.378v0z"></path>
<path fill="#fff" d="M966.998 26.215c-4.429-5.358-10.249-9.317-16.765-11.644 6.523 2.327 12.347 6.294 16.765 11.644z"></path>
<path fill="#ebecec" d="M976.089 49.977c-3.73-5.824-9.321-10.482-15.604-13.509-0.463-2.324-0.703-4.429-1.166-6.523v0c0 1.865 0 3.959 0 6.053-3.497-1.395-7.223-2.327-10.941-2.797-45.656-4.658-142.311-5.591-260.874 42.862-8.148-3.959-16.303-8.148-24.92-12.347 0 0 0 0 0 0s0 0-0.233 0c127.17-56.601 231.521-55.668 279.504-50.777 2.794 0.23 5.82 0.932 8.388 1.632 6.523 2.327 12.344 6.294 16.765 11.644 4.429 5.361 7.456 11.648 8.618 18.871 0.23 1.635 0.463 3.256 0.463 4.892v0z"></path>
<path fill="#727271" d="M960.474 36.468c-0.463-0.23-0.932-0.463-1.162-0.463 0-2.094 0-4.189 0-6.053v0c0.463 2.098 0.699 4.192 1.162 6.527v-0.011zM687.497 76.063c-1.162 0.459-2.327 0.932-3.73 1.391-6.982-4.658-14.208-9.317-21.194-13.739 0 0 0 0 0 0 8.618 4.189 16.765 8.388 24.924 12.347v0z"></path>
<path fill="#434242" d="M671.424 69.54c101.783 65.677 188.429 148.834 257.843 248.053 47.983-123.211 44.254-222.2 37.268-271.352-1.861-13.047-12.344-23.059-25.383-24.454-49.375-4.888-148.371-5.121-269.721 47.754h-0.007zM937.186 343.216c-1.395 1.166-3.027 1.865-4.892 2.094-3.256 0.233-6.523-1.162-8.388-3.956-72.671-107.611-165.599-197.047-276.004-265.532-2.794-1.865-4.429-4.892-4.189-8.148 0.23-3.256 2.094-6.294 5.121-7.685 131.828-61.259 240.841-61.492 294.171-56.131 21.427 2.327 38.433 18.63 41.46 40.065 7.456 52.871 11.415 161.644-44.723 296.036-0.463 1.162-1.395 2.324-2.568 3.256h0.011z"></path>
<path fill="#434242" d="M412.885 780.871c10.482-1.632 56.601-9.317 120.417-38.899 67.080-30.977 167.934-92.936 267.856-212.191 51.239-61.259 91.774-126.004 120.184-192.385-71.501-104.58-162.114-191.696-269.251-259.009-65.215 30.744-128.339 73.836-187.737 127.41-115.292 104.58-173.525 207.529-201.705 275.774-27.018 64.985-33.072 111.333-34.241 121.816 19.33 39.362 45.186 74.539 76.63 105.043 31.447 30.282 67.783 54.506 107.84 72.434l0.007 0.007zM703.101 653.934c-62.192 52.172-119.485 84.777-163.046 104.81-75.227 34.474-125.545 40.065-127.64 40.298-1.391 0-3.027-0.233-4.429-0.932-42.859-18.63-81.754-44.487-115.292-76.863-33.771-32.38-61.259-70.11-81.525-112.269-0.459-1.391-0.929-2.794-0.699-4.429 0-2.094 3.497-52.642 35.173-129.031 29.113-70.11 88.507-176.085 206.597-283 61.962-56.127 128.102-100.851 196.588-132.528 2.794-1.395 6.053-1.166 8.618 0.459 112.499 69.877 207.066 160.952 281.365 270.883 1.632 2.327 2.094 5.594 0.932 8.621-29.113 69.407-71.272 137.419-124.846 201.476-37.73 44.953-75.701 81.984-111.796 112.495v0 0.011z"></path>
<path fill="#434242" d="M417.314 796.948c-0.23 0.23-0.459 0.23-0.932 0.699l-36.106 23.758c-19.1 12.577-43.791 13.742-63.813 2.797-52.875-28.421-97.128-70.809-127.64-122.519-11.648-20.032-11.415-44.483 0.459-64.056l22.36-37.035c2.564-4.429 8.148-5.824 12.344-3.26 4.189 2.797 5.591 8.148 3.027 12.347l-22.356 37.268c-8.618 13.979-8.618 31.447-0.233 45.415 28.654 48.916 70.339 88.98 120.417 115.995 14.442 7.689 31.906 6.986 45.415-2.094l36.339-23.758c4.189-2.797 9.78-1.635 12.344 2.564 2.564 3.959 1.865 8.851-1.632 11.877v0h0.007z"></path>
<path fill="#fff" d="M400.771 613.64c-0.23 0-0.699 0-1.632 0-7.689 0.23-40.528 2.564-71.975 18.867 0 0 0 0 0 0 31.447-16.303 64.286-18.63 71.975-18.867 0.932 0 1.632 0 1.632 0v0z"></path>
<path fill="#d1d1e5" d="M327.175 632.499c-8.618 4.189-17.006 9.55-24.924 16.303-3.256 2.568-6.053 5.361-9.080 8.388 0 0-0.23 0-0.23 0.233 0-0.233 0.23-0.233 0.23-0.233 3.027-3.027 5.824-5.82 9.080-8.388 7.918-6.753 16.306-12.114 24.924-16.303 0 0 0 0 0 0z"></path>
<path fill="#f91228" d="M669.097 490.888c-42.389 44.024-112.266 45.186-156.29 3.027-44.024-42.389-45.415-112.499-3.027-156.29 42.392-44.024 112.269-45.415 156.29-3.256 44.024 42.389 45.419 112.499 3.027 156.519z"></path>
<path fill="#ae0d3e" d="M654.659 492.054c-17.698 14.908-39.825 23.289-63.124 23.758-1.865 0-3.497 0-5.121 0 4.429-6.294 7.456-13.047 9.55-20.032 18.63-3.256 36.335-11.415 51.48-24.221 3.023-2.327 6.050-5.121 8.847-8.148 20.732-21.427 30.977-49.615 30.744-77.333 2.564 8.388 3.959 17.235 3.959 26.086 0.463 27.248-9.55 52.871-28.18 72.434-2.797 2.794-5.361 5.121-8.148 7.456v0h-0.007z"></path>
<path fill="#434242" d="M524.451 336.234c-3.027 2.324-5.591 4.888-8.148 7.452-18.867 19.563-28.88 45.186-28.417 72.434 0.459 27.018 11.644 52.412 31.214 71.272 19.563 18.871 45.186 28.883 72.434 28.421 27.018-0.703 52.409-11.644 71.272-31.214 18.63-19.563 28.65-45.186 28.18-72.434-0.463-27.018-11.415-52.412-31.218-71.272-19.33-18.63-45.186-28.883-72.201-28.421-23.522 0.463-45.659 8.851-63.124 23.762h0.007zM666.070 505.799c-20.732 17.468-46.818 27.488-74.295 27.951-31.91 0.459-62.192-11.415-85.251-33.312-23.059-22.356-35.865-51.939-36.568-84.085-0.699-31.91 11.185-62.192 33.312-85.021 22.127-23.059 51.939-36.106 83.845-36.565 31.91-0.703 62.192 11.182 85.251 33.309s36.106 51.939 36.568 83.849c0.699 31.906-11.185 62.192-33.312 85.018-3.027 3.26-6.29 6.294-9.55 8.851v0.007z"></path>
<path fill="#ebecec" d="M640.217 461.076c-27.018 27.951-71.501 28.88-99.459 1.865-27.951-26.789-28.883-71.272-2.094-99.459 27.015-27.951 71.501-28.883 99.459-1.865 28.18 27.018 28.88 71.501 2.094 99.459z"></path>
<path fill="#fefefe" d="M628.802 459.444c-8.847 7.223-19.33 11.874-30.515 13.506-0.23-0.929-0.23-2.094-0.459-3.027-0.233-2.794-0.703-5.358-1.395-8.144 9.321-2.568 17.938-7.226 25.383-13.509 2.094-1.635 3.959-3.26 5.594-5.121 13.979-14.442 20.491-33.542 19.559-52.172 2.327 6.294 3.73 13.047 3.959 20.262 0.233 16.306-5.82 31.677-17.235 43.554v0c-1.635 1.632-3.256 3.027-4.892 4.658v0-0.007z"></path>
<path fill="#c5c6c6" d="M634.393 370.704c-24.221-11.644-54.033-8.388-75.227 9.55-1.865 1.635-3.73 3.26-5.591 5.121-4.192 4.429-7.689 9.080-10.482 13.979-4.192-2.094-8.388-3.959-12.118-5.361 2.568-9.077 7.456-17.235 14.212-24.221 1.632-1.632 3.256-3.027 4.888-4.429 23.762-20.032 59.165-19.1 81.984 2.797 0.703 0.699 1.635 1.632 2.327 2.564v0h0.007z"></path>
<path fill="#434242" d="M550.075 365.343c-1.632 1.395-3.256 2.797-4.888 4.429-11.415 11.877-17.468 27.248-17.006 43.795 0.23 16.303 6.986 31.677 18.63 42.859 11.874 11.415 27.488 17.468 43.791 17.235 16.303-0.23 31.677-6.982 43.092-18.867v0c11.415-11.877 17.468-27.248 17.235-43.554-0.463-16.536-7.223-31.906-18.871-43.092-22.826-21.894-58.233-22.826-81.984-2.794v-0.011zM640.217 473.19c-13.739 11.644-30.977 18.168-49.145 18.401-21.194 0.463-41.227-7.456-56.601-22.127-15.37-14.671-23.988-34.474-24.221-55.668-0.459-21.194 7.226-41.227 22.127-56.368 30.285-31.677 80.592-32.609 112.040-2.327 31.444 30.285 32.606 80.592 2.094 112.269v0c-1.865 2.094-3.959 3.959-6.294 5.82v0z"></path>
</svg>
