<svg width="256" height="48" viewBox="0 0 256 48" fill="none" xmlns="http://www.w3.org/2000/svg">
<path d="M63.0651 21.5H53.3151L51.4551 26H46.4751L55.8351 5H60.6351L70.0251 26H64.9251L63.0651 21.5ZM61.5351 17.81L58.2051 9.77L54.8751 17.81H61.5351ZM84.0944 26.36C81.0944 26.36 78.7544 25.53 77.0744 23.87C75.4144 22.21 74.5844 19.84 74.5844 16.76V5H79.4444V16.58C79.4444 20.34 81.0044 22.22 84.1244 22.22C85.6444 22.22 86.8044 21.77 87.6044 20.87C88.4044 19.95 88.8044 18.52 88.8044 16.58V5H93.6044V16.76C93.6044 19.84 92.7644 22.21 91.0844 23.87C89.4244 25.53 87.0944 26.36 84.0944 26.36ZM114.787 26L110.737 20.15H110.497H106.267V26H101.407V5H110.497C112.357 5 113.967 5.31 115.327 5.93C116.707 6.55 117.767 7.43 118.507 8.57C119.247 9.71 119.617 11.06 119.617 12.62C119.617 14.18 119.237 15.53 118.477 16.67C117.737 17.79 116.677 18.65 115.297 19.25L120.007 26H114.787ZM114.697 12.62C114.697 11.44 114.317 10.54 113.557 9.92C112.797 9.28 111.687 8.96 110.227 8.96H106.267V16.28H110.227C111.687 16.28 112.797 15.96 113.557 15.32C114.317 14.68 114.697 13.78 114.697 12.62ZM136.638 26.36C134.458 26.36 132.488 25.89 130.728 24.95C128.988 24.01 127.618 22.72 126.618 21.08C125.638 19.42 125.148 17.56 125.148 15.5C125.148 13.44 125.638 11.59 126.618 9.95C127.618 8.29 128.988 6.99 130.728 6.05C132.488 5.11 134.458 4.64 136.638 4.64C138.818 4.64 140.778 5.11 142.518 6.05C144.258 6.99 145.628 8.29 146.628 9.95C147.628 11.59 148.128 13.44 148.128 15.5C148.128 17.56 147.628 19.42 146.628 21.08C145.628 22.72 144.258 24.01 142.518 24.95C140.778 25.89 138.818 26.36 136.638 26.36ZM136.638 22.22C137.878 22.22 138.998 21.94 139.998 21.38C140.998 20.8 141.778 20 142.338 18.98C142.918 17.96 143.208 16.8 143.208 15.5C143.208 14.2 142.918 13.04 142.338 12.02C141.778 11 140.998 10.21 139.998 9.65C138.998 9.07 137.878 8.78 136.638 8.78C135.398 8.78 134.278 9.07 133.278 9.65C132.278 10.21 131.488 11 130.908 12.02C130.348 13.04 130.068 14.2 130.068 15.5C130.068 16.8 130.348 17.96 130.908 18.98C131.488 20 132.278 20.8 133.278 21.38C134.278 21.94 135.398 22.22 136.638 22.22ZM164.95 26.36C162.77 26.36 160.8 25.89 159.04 24.95C157.3 24.01 155.93 22.72 154.93 21.08C153.95 19.42 153.46 17.56 153.46 15.5C153.46 13.44 153.95 11.59 154.93 9.95C155.93 8.29 157.3 6.99 159.04 6.05C160.8 5.11 162.77 4.64 164.95 4.64C167.13 4.64 169.09 5.11 170.83 6.05C172.57 6.99 173.94 8.29 174.94 9.95C175.94 11.59 176.44 13.44 176.44 15.5C176.44 17.56 175.94 19.42 174.94 21.08C173.94 22.72 172.57 24.01 170.83 24.95C169.09 25.89 167.13 26.36 164.95 26.36ZM164.95 22.22C166.19 22.22 167.31 21.94 168.31 21.38C169.31 20.8 170.09 20 170.65 18.98C171.23 17.96 171.52 16.8 171.52 15.5C171.52 14.2 171.23 13.04 170.65 12.02C170.09 11 169.31 10.21 168.31 9.65C167.31 9.07 166.19 8.78 164.95 8.78C163.71 8.78 162.59 9.07 161.59 9.65C160.59 10.21 159.8 11 159.22 12.02C158.66 13.04 158.38 14.2 158.38 15.5C158.38 16.8 158.66 17.96 159.22 18.98C159.8 20 160.59 20.8 161.59 21.38C162.59 21.94 163.71 22.22 164.95 22.22ZM202.203 26L202.173 13.4L195.993 23.78H193.803L187.653 13.67V26H183.093V5H187.113L194.973 18.05L202.713 5H206.703L206.763 26H202.203Z" fill="url(#paint0_linear_489_8203)"/>
<path d="M63.0651 21.5L63.9893 21.118L63.7338 20.5H63.0651V21.5ZM53.3151 21.5V20.5H52.6464L52.3909 21.118L53.3151 21.5ZM51.4551 26V27H52.1238L52.3793 26.382L51.4551 26ZM46.4751 26L45.5617 25.5929L44.9346 27H46.4751V26ZM55.8351 5V4H55.186L54.9217 4.59289L55.8351 5ZM60.6351 5L61.548 4.5918L61.2834 4H60.6351V5ZM70.0251 26V27H71.5677L70.938 25.5918L70.0251 26ZM64.9251 26L64.001 26.382L64.2564 27H64.9251V26ZM61.5351 17.81V18.81H63.0317L62.459 17.4273L61.5351 17.81ZM58.2051 9.77L59.129 9.38734L58.2051 7.15669L57.2812 9.38734L58.2051 9.77ZM54.8751 17.81L53.9512 17.4273L53.3786 18.81H54.8751V17.81ZM63.0651 20.5H53.3151V22.5H63.0651V20.5ZM52.3909 21.118L50.5309 25.618L52.3793 26.382L54.2393 21.882L52.3909 21.118ZM51.4551 25H46.4751V27H51.4551V25ZM47.3885 26.4071L56.7485 5.40711L54.9217 4.59289L45.5617 25.5929L47.3885 26.4071ZM55.8351 6H60.6351V4H55.8351V6ZM59.7222 5.40819L69.1122 26.4082L70.938 25.5918L61.548 4.5918L59.7222 5.40819ZM70.0251 25H64.9251V27H70.0251V25ZM65.8493 25.618L63.9893 21.118L62.1409 21.882L64.001 26.382L65.8493 25.618ZM62.459 17.4273L59.129 9.38734L57.2812 10.1527L60.6112 18.1927L62.459 17.4273ZM57.2812 9.38734L53.9512 17.4273L55.799 18.1927L59.129 10.1527L57.2812 9.38734ZM54.8751 18.81H61.5351V16.81H54.8751V18.81ZM77.0744 23.87L76.3673 24.5771L76.3716 24.5813L77.0744 23.87ZM74.5844 5V4H73.5844V5H74.5844ZM79.4444 5H80.4444V4H79.4444V5ZM87.6044 20.87L88.3519 21.5344L88.359 21.5262L87.6044 20.87ZM88.8044 5V4H87.8044V5H88.8044ZM93.6044 5H94.6044V4H93.6044V5ZM91.0844 23.87L90.3815 23.1587L90.3773 23.1629L91.0844 23.87ZM84.0944 25.36C81.283 25.36 79.223 24.5872 77.7773 23.1587L76.3716 24.5813C78.2858 26.4728 80.9058 27.36 84.0944 27.36V25.36ZM77.7815 23.1629C76.3622 21.7435 75.5844 19.6608 75.5844 16.76H73.5844C73.5844 20.0192 74.4667 22.6765 76.3673 24.5771L77.7815 23.1629ZM75.5844 16.76V5H73.5844V16.76H75.5844ZM74.5844 6H79.4444V4H74.5844V6ZM78.4444 5V16.58H80.4444V5H78.4444ZM78.4444 16.58C78.4444 18.5734 78.8541 20.2546 79.8449 21.4486C80.8652 22.6783 82.3561 23.22 84.1244 23.22V21.22C82.7728 21.22 81.9236 20.8217 81.384 20.1714C80.8147 19.4854 80.4444 18.3466 80.4444 16.58H78.4444ZM84.1244 23.22C85.8497 23.22 87.3145 22.7014 88.3518 21.5344L86.857 20.2056C86.2943 20.8386 85.4392 21.22 84.1244 21.22V23.22ZM88.359 21.5262C89.3876 20.3433 89.8044 18.6264 89.8044 16.58H87.8044C87.8044 18.4136 87.4212 19.5567 86.8498 20.2138L88.359 21.5262ZM89.8044 16.58V5H87.8044V16.58H89.8044ZM88.8044 6H93.6044V4H88.8044V6ZM92.6044 5V16.76H94.6044V5H92.6044ZM92.6044 16.76C92.6044 19.6575 91.8186 21.7388 90.3816 23.1587L91.7873 24.5813C93.7103 22.6812 94.6044 20.0225 94.6044 16.76H92.6044ZM90.3773 23.1629C88.9532 24.587 86.9065 25.36 84.0944 25.36V27.36C87.2824 27.36 89.8956 26.473 91.7915 24.5771L90.3773 23.1629ZM114.787 26L113.965 26.5692L114.263 27H114.787V26ZM110.737 20.15L111.559 19.5808L111.261 19.15H110.737V20.15ZM106.267 20.15V19.15H105.267V20.15H106.267ZM106.267 26V27H107.267V26H106.267ZM101.407 26H100.407V27H101.407V26ZM101.407 5V4H100.407V5H101.407ZM115.327 5.93L114.912 6.83992L114.917 6.84217L115.327 5.93ZM118.477 16.67L117.645 16.1153L117.643 16.1187L118.477 16.67ZM115.297 19.25L114.898 18.3329L113.778 18.8201L114.477 19.8222L115.297 19.25ZM120.007 26V27H121.924L120.827 25.4278L120.007 26ZM113.557 9.92L112.913 10.6849L112.919 10.6899L112.925 10.6949L113.557 9.92ZM106.267 8.96V7.96H105.267V8.96H106.267ZM106.267 16.28H105.267V17.28H106.267V16.28ZM113.557 15.32L114.201 16.0849L113.557 15.32ZM115.609 25.4308L111.559 19.5808L109.915 20.7192L113.965 26.5692L115.609 25.4308ZM110.737 19.15H110.497V21.15H110.737V19.15ZM110.497 19.15H106.267V21.15H110.497V19.15ZM105.267 20.15V26H107.267V20.15H105.267ZM106.267 25H101.407V27H106.267V25ZM102.407 26V5H100.407V26H102.407ZM101.407 6H110.497V4H101.407V6ZM110.497 6C112.248 6 113.71 6.29193 114.912 6.83991L115.742 5.02009C114.224 4.32807 112.466 4 110.497 4V6ZM114.917 6.84217C116.142 7.3926 117.044 8.15361 117.668 9.11447L119.346 8.02553C118.489 6.70639 117.272 5.7074 115.737 5.01783L114.917 6.84217ZM117.668 9.11447C118.288 10.0694 118.617 11.224 118.617 12.62H120.617C120.617 10.896 120.206 9.35057 119.346 8.02553L117.668 9.11447ZM118.617 12.62C118.617 14.0108 118.281 15.1616 117.645 16.1153L119.309 17.2247C120.193 15.8984 120.617 14.3492 120.617 12.62H118.617ZM117.643 16.1187C117.022 17.0581 116.123 17.8005 114.898 18.3329L115.696 20.1671C117.231 19.4995 118.452 18.5219 119.311 17.2213L117.643 16.1187ZM114.477 19.8222L119.187 26.5722L120.827 25.4278L116.117 18.6778L114.477 19.8222ZM120.007 25H114.787V27H120.007V25ZM115.697 12.62C115.697 11.2071 115.23 9.99396 114.189 9.14513L112.925 10.6949C113.404 11.086 113.697 11.6729 113.697 12.62H115.697ZM114.201 9.15509C113.193 8.30599 111.815 7.96 110.227 7.96V9.96C111.559 9.96 112.401 10.254 112.913 10.6849L114.201 9.15509ZM110.227 7.96H106.267V9.96H110.227V7.96ZM105.267 8.96V16.28H107.267V8.96H105.267ZM106.267 17.28H110.227V15.28H106.267V17.28ZM110.227 17.28C111.815 17.28 113.193 16.934 114.201 16.0849L112.913 14.5551C112.401 14.986 111.559 15.28 110.227 15.28V17.28ZM114.201 16.0849C115.226 15.2222 115.697 14.0201 115.697 12.62H113.697C113.697 13.5399 113.408 14.1378 112.913 14.5551L114.201 16.0849ZM130.728 24.95L130.252 25.8298L130.256 25.8321L130.728 24.95ZM126.618 21.08L125.756 21.5884L125.76 21.5945L125.764 21.6006L126.618 21.08ZM126.618 9.95L125.761 9.43398L125.759 9.43704L126.618 9.95ZM130.728 6.05L130.256 5.16791L130.252 5.17018L130.728 6.05ZM146.628 9.95L145.771 10.466L145.774 10.4706L146.628 9.95ZM146.628 21.08L147.481 21.6006L147.484 21.596L146.628 21.08ZM142.518 24.95L142.993 25.8298L142.518 24.95ZM139.998 21.38L140.486 22.2525L140.493 22.2488L140.499 22.245L139.998 21.38ZM142.338 18.98L141.468 18.4857L141.465 18.4922L141.461 18.4987L142.338 18.98ZM142.338 12.02L141.461 12.5013L141.465 12.5078L141.468 12.5143L142.338 12.02ZM139.998 9.65L139.496 10.515L139.502 10.5188L139.509 10.5225L139.998 9.65ZM133.278 9.65L133.766 10.5225L133.773 10.5188L133.779 10.515L133.278 9.65ZM130.908 12.02L130.038 11.5257L130.035 11.5322L130.031 11.5387L130.908 12.02ZM130.908 18.98L130.031 19.4613L130.035 19.4678L130.038 19.4743L130.908 18.98ZM133.278 21.38L132.776 22.245L132.782 22.2488L132.789 22.2525L133.278 21.38ZM136.638 25.36C134.606 25.36 132.801 24.9235 131.199 24.0679L130.256 25.8321C132.175 26.8565 134.309 27.36 136.638 27.36V25.36ZM131.203 24.0702C129.614 23.2117 128.376 22.0437 127.471 20.5594L125.764 21.6006C126.859 23.3963 128.361 24.8083 130.252 25.8298L131.203 24.0702ZM127.479 20.5716C126.596 19.0762 126.148 17.3939 126.148 15.5H124.148C124.148 17.7261 124.679 19.7638 125.756 21.5884L127.479 20.5716ZM126.148 15.5C126.148 13.606 126.596 11.9358 127.476 10.463L125.759 9.43704C124.679 11.2442 124.148 13.274 124.148 15.5H126.148ZM127.474 10.466C128.38 8.96246 129.617 7.78665 131.203 6.92982L130.252 5.17018C128.358 6.19335 126.855 7.61754 125.761 9.43399L127.474 10.466ZM131.199 6.93207C132.801 6.07651 134.606 5.64 136.638 5.64V3.64C134.309 3.64 132.175 4.14349 130.256 5.16792L131.199 6.93207ZM136.638 5.64C138.669 5.64 140.463 6.07655 142.042 6.92982L142.993 5.17018C141.092 4.14345 138.966 3.64 136.638 3.64V5.64ZM142.042 6.92982C143.628 7.78665 144.865 8.96246 145.771 10.466L147.484 9.43399C146.39 7.61754 144.887 6.19335 142.993 5.17018L142.042 6.92982ZM145.774 10.4706C146.671 11.9424 147.128 13.6098 147.128 15.5H149.128C149.128 13.2702 148.584 11.2376 147.481 9.42939L145.774 10.4706ZM147.128 15.5C147.128 17.3901 146.671 19.0697 145.771 20.564L147.484 21.596C148.584 19.7703 149.128 17.7299 149.128 15.5H147.128ZM145.774 20.5594C144.869 22.0437 143.631 23.2117 142.042 24.0702L142.993 25.8298C144.884 24.8083 146.386 23.3963 147.481 21.6006L145.774 20.5594ZM142.042 24.0702C140.463 24.9235 138.669 25.36 136.638 25.36V27.36C138.966 27.36 141.092 26.8565 142.993 25.8298L142.042 24.0702ZM136.638 23.22C138.034 23.22 139.325 22.9029 140.486 22.2525L139.509 20.5075C138.67 20.9771 137.721 21.22 136.638 21.22V23.22ZM140.499 22.245C141.658 21.573 142.567 20.6398 143.214 19.4613L141.461 18.4987C140.988 19.3602 140.337 20.027 139.496 20.515L140.499 22.245ZM143.207 19.4743C143.881 18.2878 144.208 16.9542 144.208 15.5H142.208C142.208 16.6458 141.954 17.6322 141.468 18.4857L143.207 19.4743ZM144.208 15.5C144.208 14.0458 143.881 12.7122 143.207 11.5257L141.468 12.5143C141.954 13.3678 142.208 14.3542 142.208 15.5H144.208ZM143.214 11.5387C142.565 10.3572 141.652 9.43047 140.486 8.77749L139.509 10.5225C140.343 10.9895 140.99 11.6428 141.461 12.5013L143.214 11.5387ZM140.499 8.78497C139.336 8.11014 138.041 7.78 136.638 7.78V9.78C137.715 9.78 138.659 10.0299 139.496 10.515L140.499 8.78497ZM136.638 7.78C135.235 7.78 133.939 8.11014 132.776 8.78497L133.779 10.515C134.616 10.0299 135.561 9.78 136.638 9.78V7.78ZM132.789 8.77749C131.626 9.42872 130.706 10.3513 130.038 11.5257L131.777 12.5143C132.269 11.6487 132.929 10.9913 133.766 10.5225L132.789 8.77749ZM130.031 11.5387C129.381 12.7229 129.068 14.0518 129.068 15.5H131.068C131.068 14.3482 131.314 13.3571 131.784 12.5013L130.031 11.5387ZM129.068 15.5C129.068 16.9482 129.381 18.2771 130.031 19.4613L131.784 18.4987C131.314 17.6429 131.068 16.6518 131.068 15.5H129.068ZM130.038 19.4743C130.704 20.6458 131.62 21.5748 132.776 22.245L133.779 20.515C132.935 20.0252 132.271 19.3542 131.777 18.4857L130.038 19.4743ZM132.789 22.2525C133.95 22.9029 135.241 23.22 136.638 23.22V21.22C135.554 21.22 134.605 20.9771 133.766 20.5075L132.789 22.2525ZM159.04 24.95L158.565 25.8298L158.569 25.8321L159.04 24.95ZM154.93 21.08L154.069 21.5884L154.073 21.5945L154.076 21.6006L154.93 21.08ZM154.93 9.95L154.073 9.43398L154.072 9.43704L154.93 9.95ZM159.04 6.05L158.569 5.16791L158.565 5.17018L159.04 6.05ZM174.94 9.95L174.083 10.466L174.086 10.4706L174.94 9.95ZM174.94 21.08L175.794 21.6006L175.797 21.596L174.94 21.08ZM170.83 24.95L171.305 25.8298L170.83 24.95ZM168.31 21.38L168.799 22.2525L168.805 22.2488L168.812 22.245L168.31 21.38ZM170.65 18.98L169.781 18.4857L169.777 18.4922L169.773 18.4987L170.65 18.98ZM170.65 12.02L169.773 12.5013L169.777 12.5078L169.781 12.5143L170.65 12.02ZM168.31 9.65L167.808 10.515L167.815 10.5188L167.821 10.5225L168.31 9.65ZM161.59 9.65L162.079 10.5225L162.085 10.5188L162.092 10.515L161.59 9.65ZM159.22 12.02L158.351 11.5257L158.347 11.5322L158.343 11.5387L159.22 12.02ZM159.22 18.98L158.343 19.4613L158.347 19.4678L158.351 19.4743L159.22 18.98ZM161.59 21.38L161.088 22.245L161.095 22.2488L161.101 22.2525L161.59 21.38ZM164.95 25.36C162.919 25.36 161.113 24.9235 159.511 24.0679L158.569 25.8321C160.487 26.8565 162.621 27.36 164.95 27.36V25.36ZM159.515 24.0702C157.926 23.2117 156.689 22.0437 155.784 20.5594L154.076 21.6006C155.171 23.3963 156.674 24.8083 158.565 25.8298L159.515 24.0702ZM155.791 20.5716C154.908 19.0762 154.46 17.3939 154.46 15.5H152.46C152.46 17.7261 152.992 19.7638 154.069 21.5884L155.791 20.5716ZM154.46 15.5C154.46 13.606 154.908 11.9358 155.788 10.463L154.072 9.43704C152.992 11.2442 152.46 13.274 152.46 15.5H154.46ZM155.787 10.466C156.692 8.96246 157.929 7.78665 159.515 6.92982L158.565 5.17018C156.671 6.19335 155.168 7.61754 154.073 9.43399L155.787 10.466ZM159.511 6.93207C161.113 6.07651 162.919 5.64 164.95 5.64V3.64C162.621 3.64 160.487 4.14349 158.569 5.16792L159.511 6.93207ZM164.95 5.64C166.981 5.64 168.775 6.07655 170.355 6.92982L171.305 5.17018C169.405 4.14345 167.279 3.64 164.95 3.64V5.64ZM170.355 6.92982C171.941 7.78665 173.178 8.96246 174.083 10.466L175.797 9.43399C174.702 7.61754 173.199 6.19335 171.305 5.17018L170.355 6.92982ZM174.086 10.4706C174.984 11.9424 175.44 13.6098 175.44 15.5H177.44C177.44 13.2702 176.896 11.2376 175.794 9.42939L174.086 10.4706ZM175.44 15.5C175.44 17.3901 174.984 19.0697 174.083 20.564L175.797 21.596C176.896 19.7703 177.44 17.7299 177.44 15.5H175.44ZM174.086 20.5594C173.181 22.0437 171.944 23.2117 170.355 24.0702L171.305 25.8298C173.196 24.8083 174.699 23.3963 175.794 21.6006L174.086 20.5594ZM170.355 24.0702C168.775 24.9235 166.981 25.36 164.95 25.36V27.36C167.279 27.36 169.405 26.8565 171.305 25.8298L170.355 24.0702ZM164.95 23.22C166.347 23.22 167.637 22.9029 168.799 22.2525L167.821 20.5075C166.983 20.9771 166.033 21.22 164.95 21.22V23.22ZM168.812 22.245C169.97 21.573 170.88 20.6398 171.527 19.4613L169.773 18.4987C169.301 19.3602 168.65 20.027 167.808 20.515L168.812 22.245ZM171.519 19.4743C172.194 18.2878 172.52 16.9542 172.52 15.5H170.52C170.52 16.6458 170.266 17.6322 169.781 18.4857L171.519 19.4743ZM172.52 15.5C172.52 14.0458 172.194 12.7122 171.519 11.5257L169.781 12.5143C170.266 13.3678 170.52 14.3542 170.52 15.5H172.52ZM171.527 11.5387C170.878 10.3572 169.965 9.43047 168.799 8.77749L167.821 10.5225C168.655 10.9895 169.302 11.6428 169.773 12.5013L171.527 11.5387ZM168.812 8.78497C167.648 8.11014 166.353 7.78 164.95 7.78V9.78C166.027 9.78 166.972 10.0299 167.808 10.515L168.812 8.78497ZM164.95 7.78C163.547 7.78 162.252 8.11014 161.088 8.78497L162.092 10.515C162.928 10.0299 163.873 9.78 164.95 9.78V7.78ZM161.101 8.77749C159.939 9.42872 159.019 10.3513 158.351 11.5257L160.089 12.5143C160.582 11.6487 161.242 10.9913 162.079 10.5225L161.101 8.77749ZM158.343 11.5387C157.693 12.7229 157.38 14.0518 157.38 15.5H159.38C159.38 14.3482 159.627 13.3571 160.097 12.5013L158.343 11.5387ZM157.38 15.5C157.38 16.9482 157.693 18.2771 158.343 19.4613L160.097 18.4987C159.627 17.6429 159.38 16.6518 159.38 15.5H157.38ZM158.351 19.4743C159.017 20.6458 159.933 21.5748 161.088 22.245L162.092 20.515C161.247 20.0252 160.583 19.3542 160.089 18.4857L158.351 19.4743ZM161.101 22.2525C162.263 22.9029 163.553 23.22 164.95 23.22V21.22C163.867 21.22 162.917 20.9771 162.079 20.5075L161.101 22.2525ZM202.203 26L201.203 26.0024L201.205 27H202.203V26ZM202.173 13.4L203.173 13.3976L203.164 9.7801L201.313 12.8884L202.173 13.4ZM195.993 23.78V24.78H196.561L196.852 24.2916L195.993 23.78ZM193.803 23.78L192.948 24.2997L193.24 24.78H193.803V23.78ZM187.653 13.67L188.507 13.1503L186.653 10.1019V13.67H187.653ZM187.653 26V27H188.653V26H187.653ZM183.093 26H182.093V27H183.093V26ZM183.093 5V4H182.093V5H183.093ZM187.113 5L187.969 4.48406L187.678 4H187.113V5ZM194.973 18.05L194.116 18.5659L194.979 19.9992L195.833 18.5601L194.973 18.05ZM202.713 5V4H202.143L201.852 4.48987L202.713 5ZM206.703 5L207.703 4.99714L207.7 4H206.703V5ZM206.763 26V27H207.765L207.763 25.9971L206.763 26ZM203.203 25.9976L203.173 13.3976L201.173 13.4024L201.203 26.0024L203.203 25.9976ZM201.313 12.8884L195.133 23.2684L196.852 24.2916L203.032 13.9116L201.313 12.8884ZM195.993 22.78H193.803V24.78H195.993V22.78ZM194.657 23.2603L188.507 13.1503L186.798 14.1897L192.948 24.2997L194.657 23.2603ZM186.653 13.67V26H188.653V13.67H186.653ZM187.653 25H183.093V27H187.653V25ZM184.093 26V5H182.093V26H184.093ZM183.093 6H187.113V4H183.093V6ZM186.256 5.51594L194.116 18.5659L195.829 17.5341L187.969 4.48406L186.256 5.51594ZM195.833 18.5601L203.573 5.51013L201.852 4.48987L194.112 17.5399L195.833 18.5601ZM202.713 6H206.703V4H202.713V6ZM205.703 5.00286L205.763 26.0029L207.763 25.9971L207.703 4.99714L205.703 5.00286ZM206.763 25H202.203V27H206.763V25Z" fill="url(#paint1_linear_489_8203)"/>
<path d="M97.751 46.18C96.681 46.18 95.711 45.95 94.841 45.49C93.981 45.02 93.301 44.375 92.801 43.555C92.311 42.725 92.066 41.79 92.066 40.75C92.066 39.71 92.311 38.78 92.801 37.96C93.301 37.13 93.981 36.485 94.841 36.025C95.711 35.555 96.686 35.32 97.766 35.32C98.676 35.32 99.496 35.48 100.226 35.8C100.966 36.12 101.586 36.58 102.086 37.18L100.526 38.62C99.816 37.8 98.936 37.39 97.886 37.39C97.236 37.39 96.656 37.535 96.146 37.825C95.636 38.105 95.236 38.5 94.946 39.01C94.666 39.52 94.526 40.1 94.526 40.75C94.526 41.4 94.666 41.98 94.946 42.49C95.236 43 95.636 43.4 96.146 43.69C96.656 43.97 97.236 44.11 97.886 44.11C98.936 44.11 99.816 43.695 100.526 42.865L102.086 44.305C101.586 44.915 100.966 45.38 100.226 45.7C99.486 46.02 98.661 46.18 97.751 46.18ZM111.937 43.75H107.062L106.132 46H103.642L108.322 35.5H110.722L115.417 46H112.867L111.937 43.75ZM111.172 41.905L109.507 37.885L107.842 41.905H111.172ZM121.456 46.18C120.626 46.18 119.821 46.07 119.041 45.85C118.271 45.62 117.651 45.325 117.181 44.965L118.006 43.135C118.456 43.465 118.991 43.73 119.611 43.93C120.231 44.13 120.851 44.23 121.471 44.23C122.161 44.23 122.671 44.13 123.001 43.93C123.331 43.72 123.496 43.445 123.496 43.105C123.496 42.855 123.396 42.65 123.196 42.49C123.006 42.32 122.756 42.185 122.446 42.085C122.146 41.985 121.736 41.875 121.216 41.755C120.416 41.565 119.761 41.375 119.251 41.185C118.741 40.995 118.301 40.69 117.931 40.27C117.571 39.85 117.391 39.29 117.391 38.59C117.391 37.98 117.556 37.43 117.886 36.94C118.216 36.44 118.711 36.045 119.371 35.755C120.041 35.465 120.856 35.32 121.816 35.32C122.486 35.32 123.141 35.4 123.781 35.56C124.421 35.72 124.981 35.95 125.461 36.25L124.711 38.095C123.741 37.545 122.771 37.27 121.801 37.27C121.121 37.27 120.616 37.38 120.286 37.6C119.966 37.82 119.806 38.11 119.806 38.47C119.806 38.83 119.991 39.1 120.361 39.28C120.741 39.45 121.316 39.62 122.086 39.79C122.886 39.98 123.541 40.17 124.051 40.36C124.561 40.55 124.996 40.85 125.356 41.26C125.726 41.67 125.911 42.225 125.911 42.925C125.911 43.525 125.741 44.075 125.401 44.575C125.071 45.065 124.571 45.455 123.901 45.745C123.231 46.035 122.416 46.18 121.456 46.18ZM129.072 35.5H131.502V46H129.072V35.5ZM145.124 35.5V46H143.129L137.894 39.625V46H135.494V35.5H137.504L142.724 41.875V35.5H145.124ZM154.193 46.18C153.103 46.18 152.118 45.945 151.238 45.475C150.368 45.005 149.683 44.36 149.183 43.54C148.693 42.71 148.448 41.78 148.448 40.75C148.448 39.72 148.693 38.795 149.183 37.975C149.683 37.145 150.368 36.495 151.238 36.025C152.118 35.555 153.103 35.32 154.193 35.32C155.283 35.32 156.263 35.555 157.133 36.025C158.003 36.495 158.688 37.145 159.188 37.975C159.688 38.795 159.938 39.72 159.938 40.75C159.938 41.78 159.688 42.71 159.188 43.54C158.688 44.36 158.003 45.005 157.133 45.475C156.263 45.945 155.283 46.18 154.193 46.18ZM154.193 44.11C154.813 44.11 155.373 43.97 155.873 43.69C156.373 43.4 156.763 43 157.043 42.49C157.333 41.98 157.478 41.4 157.478 40.75C157.478 40.1 157.333 39.52 157.043 39.01C156.763 38.5 156.373 38.105 155.873 37.825C155.373 37.535 154.813 37.39 154.193 37.39C153.573 37.39 153.013 37.535 152.513 37.825C152.013 38.105 151.618 38.5 151.328 39.01C151.048 39.52 150.908 40.1 150.908 40.75C150.908 41.4 151.048 41.98 151.328 42.49C151.618 43 152.013 43.4 152.513 43.69C153.013 43.97 153.573 44.11 154.193 44.11Z" fill="url(#paint2_linear_489_8203)"/>
<defs>
<linearGradient id="paint0_linear_489_8203" x1="251.077" y1="15.1395" x2="4.20205e-07" y2="15.1396" gradientUnits="userSpaceOnUse">
<stop stop-color="#C711A4"/>
<stop offset="1" stop-color="white"/>
</linearGradient>
<linearGradient id="paint1_linear_489_8203" x1="128" y1="0" x2="128" y2="31" gradientUnits="userSpaceOnUse">
<stop stop-color="#CA9336"/>
<stop offset="0.234375" stop-color="#FAD177"/>
<stop offset="0.526042" stop-color="#F2D88A"/>
<stop offset="0.75" stop-color="#F8D37D"/>
<stop offset="1" stop-color="#D7A447"/>
</linearGradient>
<linearGradient id="paint2_linear_489_8203" x1="126" y1="33" x2="126" y2="48" gradientUnits="userSpaceOnUse">
<stop stop-color="#CA9336"/>
<stop offset="0.234375" stop-color="#FAD177"/>
<stop offset="0.526042" stop-color="#F2D88A"/>
<stop offset="0.75" stop-color="#F8D37D"/>
<stop offset="1" stop-color="#D7A447"/>
</linearGradient>
</defs>
</svg>
