<svg width="221" height="56" viewBox="0 0 221 56" fill="none" xmlns="http://www.w3.org/2000/svg">
<path d="M23.9202 24H10.9202L8.44016 30H1.80016L14.2802 2H20.6802L33.2002 30H26.4002L23.9202 24ZM21.8802 19.08L17.4402 8.36L13.0002 19.08H21.8802ZM51.9592 30.48C47.9592 30.48 44.8392 29.3733 42.5992 27.16C40.3859 24.9467 39.2792 21.7867 39.2792 17.68V2H45.7592V17.44C45.7592 22.4533 47.8392 24.96 51.9992 24.96C54.0259 24.96 55.5726 24.36 56.6392 23.16C57.7059 21.9333 58.2392 20.0267 58.2392 17.44V2H64.6392V17.68C64.6392 21.7867 63.5192 24.9467 61.2792 27.16C59.0659 29.3733 55.9592 30.48 51.9592 30.48ZM92.8827 30L87.4827 22.2H87.1627H81.5227V30H75.0427V2H87.1627C89.6427 2 91.7893 2.41333 93.6027 3.24C95.4427 4.06667 96.856 5.24 97.8427 6.76C98.8293 8.28 99.3227 10.08 99.3227 12.16C99.3227 14.24 98.816 16.04 97.8027 17.56C96.816 19.0533 95.4027 20.2 93.5627 21L99.8427 30H92.8827ZM92.7627 12.16C92.7627 10.5867 92.256 9.38667 91.2427 8.56C90.2293 7.70667 88.7493 7.28 86.8027 7.28H81.5227V17.04H86.8027C88.7493 17.04 90.2293 16.6133 91.2427 15.76C92.256 14.9067 92.7627 13.7067 92.7627 12.16ZM122.017 30.48C119.11 30.48 116.483 29.8533 114.137 28.6C111.817 27.3467 109.99 25.6267 108.657 23.44C107.35 21.2267 106.697 18.7467 106.697 16C106.697 13.2533 107.35 10.7867 108.657 8.6C109.99 6.38667 111.817 4.65333 114.137 3.4C116.483 2.14667 119.11 1.52 122.017 1.52C124.923 1.52 127.537 2.14667 129.857 3.4C132.177 4.65333 134.003 6.38667 135.337 8.6C136.67 10.7867 137.337 13.2533 137.337 16C137.337 18.7467 136.67 21.2267 135.337 23.44C134.003 25.6267 132.177 27.3467 129.857 28.6C127.537 29.8533 124.923 30.48 122.017 30.48ZM122.017 24.96C123.67 24.96 125.163 24.5867 126.497 23.84C127.83 23.0667 128.87 22 129.617 20.64C130.39 19.28 130.777 17.7333 130.777 16C130.777 14.2667 130.39 12.72 129.617 11.36C128.87 10 127.83 8.94667 126.497 8.2C125.163 7.42667 123.67 7.04 122.017 7.04C120.363 7.04 118.87 7.42667 117.537 8.2C116.203 8.94667 115.15 10 114.377 11.36C113.63 12.72 113.257 14.2667 113.257 16C113.257 17.7333 113.63 19.28 114.377 20.64C115.15 22 116.203 23.0667 117.537 23.84C118.87 24.5867 120.363 24.96 122.017 24.96ZM159.767 30.48C156.86 30.48 154.233 29.8533 151.887 28.6C149.567 27.3467 147.74 25.6267 146.407 23.44C145.1 21.2267 144.447 18.7467 144.447 16C144.447 13.2533 145.1 10.7867 146.407 8.6C147.74 6.38667 149.567 4.65333 151.887 3.4C154.233 2.14667 156.86 1.52 159.767 1.52C162.673 1.52 165.287 2.14667 167.607 3.4C169.927 4.65333 171.753 6.38667 173.087 8.6C174.42 10.7867 175.087 13.2533 175.087 16C175.087 18.7467 174.42 21.2267 173.087 23.44C171.753 25.6267 169.927 27.3467 167.607 28.6C165.287 29.8533 162.673 30.48 159.767 30.48ZM159.767 24.96C161.42 24.96 162.913 24.5867 164.247 23.84C165.58 23.0667 166.62 22 167.367 20.64C168.14 19.28 168.527 17.7333 168.527 16C168.527 14.2667 168.14 12.72 167.367 11.36C166.62 10 165.58 8.94667 164.247 8.2C162.913 7.42667 161.42 7.04 159.767 7.04C158.113 7.04 156.62 7.42667 155.287 8.2C153.953 8.94667 152.9 10 152.127 11.36C151.38 12.72 151.007 14.2667 151.007 16C151.007 17.7333 151.38 19.28 152.127 20.64C152.9 22 153.953 23.0667 155.287 23.84C156.62 24.5867 158.113 24.96 159.767 24.96ZM209.437 30L209.397 13.2L201.157 27.04H198.237L190.037 13.56V30H183.957V2H189.317L199.797 19.4L210.117 2H215.437L215.517 30H209.437Z" fill="url(#paint0_linear_721_4887)"/>
<path d="M23.9202 24L24.8443 23.618L24.5889 23H23.9202V24ZM10.9202 24V23H10.2514L9.99599 23.618L10.9202 24ZM8.44016 30V31H9.10888L9.36432 30.382L8.44016 30ZM1.80016 30L0.886776 29.5929L0.259608 31H1.80016V30ZM14.2802 2V0.999998H13.631L13.3668 1.59289L14.2802 2ZM20.6802 2L21.5931 1.5918L21.3284 0.999998H20.6802V2ZM33.2002 30V31H34.7427L34.1131 29.5918L33.2002 30ZM26.4002 30L25.476 30.382L25.7314 31H26.4002V30ZM21.8802 19.08V20.08H23.3767L22.804 18.6973L21.8802 19.08ZM17.4402 8.36L18.364 7.97734L17.4402 5.74669L16.5163 7.97734L17.4402 8.36ZM13.0002 19.08L12.0763 18.6973L11.5036 20.08H13.0002V19.08ZM23.9202 23H10.9202V25H23.9202V23ZM9.99599 23.618L7.51599 29.618L9.36432 30.382L11.8443 24.382L9.99599 23.618ZM8.44016 29H1.80016V31H8.44016V29ZM2.71354 30.4071L15.1935 2.4071L13.3668 1.59289L0.886776 29.5929L2.71354 30.4071ZM14.2802 3H20.6802V0.999998H14.2802V3ZM19.7673 2.40819L32.2873 30.4082L34.1131 29.5918L21.5931 1.5918L19.7673 2.40819ZM33.2002 29H26.4002V31H33.2002V29ZM27.3243 29.618L24.8443 23.618L22.996 24.382L25.476 30.382L27.3243 29.618ZM22.804 18.6973L18.364 7.97734L16.5163 8.74266L20.9563 19.4627L22.804 18.6973ZM16.5163 7.97734L12.0763 18.6973L13.924 19.4627L18.364 8.74266L16.5163 7.97734ZM13.0002 20.08H21.8802V18.08H13.0002V20.08ZM42.5992 27.16L41.8921 27.8671L41.8964 27.8713L42.5992 27.16ZM39.2792 2V0.999998H38.2792V2H39.2792ZM45.7592 2H46.7592V0.999998H45.7592V2ZM56.6392 23.16L57.3867 23.8244L57.3938 23.8162L56.6392 23.16ZM58.2392 2V0.999998H57.2392V2H58.2392ZM64.6392 2H65.6392V0.999998H64.6392V2ZM61.2792 27.16L60.5763 26.4487L60.5721 26.4529L61.2792 27.16ZM51.9592 29.48C48.1478 29.48 45.3078 28.4305 43.3021 26.4487L41.8964 27.8713C44.3706 30.3161 47.7706 31.48 51.9592 31.48V29.48ZM43.3063 26.4529C41.3336 24.4802 40.2792 21.6074 40.2792 17.68H38.2792C38.2792 21.9659 39.4381 25.4131 41.8921 27.8671L43.3063 26.4529ZM40.2792 17.68V2H38.2792V17.68H40.2792ZM39.2792 3H45.7592V0.999998H39.2792V3ZM44.7592 2V17.44H46.7592V2H44.7592ZM44.7592 17.44C44.7592 20.0601 45.2989 22.2113 46.5497 23.7186C47.8301 25.2616 49.7109 25.96 51.9992 25.96V23.96C50.1276 23.96 48.8884 23.405 48.0888 22.4414C47.2595 21.4421 46.7592 19.8332 46.7592 17.44H44.7592ZM51.9992 25.96C54.2311 25.96 56.0826 25.2914 57.3866 23.8244L55.8918 22.4956C55.0625 23.4286 53.8206 23.96 51.9992 23.96V25.96ZM57.3938 23.8162C58.6891 22.3266 59.2392 20.133 59.2392 17.44H57.2392C57.2392 19.9203 56.7227 21.5401 55.8846 22.5038L57.3938 23.8162ZM59.2392 17.44V2H57.2392V17.44H59.2392ZM58.2392 3H64.6392V0.999998H58.2392V3ZM63.6392 2V17.68H65.6392V2H63.6392ZM63.6392 17.68C63.6392 21.6042 62.5734 24.4754 60.5764 26.4487L61.9821 27.8713C64.4651 25.4179 65.6392 21.9692 65.6392 17.68H63.6392ZM60.5721 26.4529C58.5947 28.4303 55.7713 29.48 51.9592 29.48V31.48C56.1472 31.48 59.5371 30.3163 61.9863 27.8671L60.5721 26.4529ZM92.8827 30L92.0605 30.5692L92.3587 31H92.8827V30ZM87.4827 22.2L88.3048 21.6308L88.0066 21.2H87.4827V22.2ZM81.5227 22.2V21.2H80.5227V22.2H81.5227ZM81.5227 30V31H82.5227V30H81.5227ZM75.0427 30H74.0427V31H75.0427V30ZM75.0427 2V0.999998H74.0427V2H75.0427ZM93.6027 3.24L93.1878 4.14992L93.1928 4.15217L93.6027 3.24ZM97.8027 17.56L96.9706 17.0053L96.9683 17.0087L97.8027 17.56ZM93.5627 21L93.1639 20.0829L92.0433 20.5701L92.7426 21.5722L93.5627 21ZM99.8427 30V31H101.76L100.663 29.4278L99.8427 30ZM91.2427 8.56L90.5985 9.32491L90.6045 9.32993L90.6105 9.33486L91.2427 8.56ZM81.5227 7.28V6.28H80.5227V7.28H81.5227ZM81.5227 17.04H80.5227V18.04H81.5227V17.04ZM91.2427 15.76L91.8868 16.5249V16.5249L91.2427 15.76ZM93.7048 29.4308L88.3048 21.6308L86.6605 22.7692L92.0605 30.5692L93.7048 29.4308ZM87.4827 21.2H87.1627V23.2H87.4827V21.2ZM87.1627 21.2H81.5227V23.2H87.1627V21.2ZM80.5227 22.2V30H82.5227V22.2H80.5227ZM81.5227 29H75.0427V31H81.5227V29ZM76.0427 30V2H74.0427V30H76.0427ZM75.0427 3H87.1627V0.999998H75.0427V3ZM87.1627 3C89.5336 3 91.5325 3.39526 93.1879 4.14991L94.0175 2.33009C92.0462 1.4314 89.7518 0.999998 87.1627 0.999998V3ZM93.1928 4.15217C94.878 4.90927 96.1335 5.96361 97.0039 7.30447L98.6814 6.21553C97.5785 4.51639 96.0073 3.22406 94.0125 2.32783L93.1928 4.15217ZM97.0039 7.30447C97.8704 8.63943 98.3227 10.244 98.3227 12.16H100.323C100.323 9.91605 99.7882 7.92057 98.6814 6.21553L97.0039 7.30447ZM98.3227 12.16C98.3227 14.0708 97.8598 15.6716 96.9706 17.0053L98.6347 18.1147C99.7722 16.4084 100.323 14.4092 100.323 12.16H98.3227ZM96.9683 17.0087C96.101 18.3215 94.8486 19.3505 93.1639 20.0829L93.9614 21.9171C95.9567 21.0495 97.531 19.7852 98.637 18.1113L96.9683 17.0087ZM92.7426 21.5722L99.0226 30.5722L100.663 29.4278L94.3827 20.4278L92.7426 21.5722ZM99.8427 29H92.8827V31H99.8427V29ZM93.7627 12.16C93.7627 10.3537 93.1686 8.84063 91.8748 7.78513L90.6105 9.33486C91.3434 9.9327 91.7627 10.8196 91.7627 12.16H93.7627ZM91.8868 7.79509C90.6252 6.73266 88.8775 6.28 86.8027 6.28V8.28C88.6212 8.28 89.8335 8.68068 90.5985 9.32491L91.8868 7.79509ZM86.8027 6.28H81.5227V8.28H86.8027V6.28ZM80.5227 7.28V17.04H82.5227V7.28H80.5227ZM81.5227 18.04H86.8027V16.04H81.5227V18.04ZM86.8027 18.04C88.8775 18.04 90.6252 17.5873 91.8868 16.5249L90.5985 14.9951C89.8335 15.6393 88.6212 16.04 86.8027 16.04V18.04ZM91.8868 16.5249C93.1646 15.4489 93.7627 13.9468 93.7627 12.16H91.7627C91.7627 13.4666 91.3474 14.3645 90.5985 14.9951L91.8868 16.5249ZM114.137 28.6L113.661 29.4798L113.666 29.4821L114.137 28.6ZM108.657 23.44L107.796 23.9484L107.799 23.9545L107.803 23.9606L108.657 23.44ZM108.657 8.6L107.8 8.08398L107.798 8.08704L108.657 8.6ZM114.137 3.4L113.666 2.51791L113.661 2.52018L114.137 3.4ZM135.337 8.6L134.48 9.11602L134.483 9.12061L135.337 8.6ZM135.337 23.44L136.191 23.9606L136.193 23.956L135.337 23.44ZM129.857 28.6L130.332 29.4798L129.857 28.6ZM126.497 23.84L126.985 24.7125L126.992 24.7088L126.998 24.705L126.497 23.84ZM129.617 20.64L128.747 20.1457L128.744 20.1522L128.74 20.1587L129.617 20.64ZM129.617 11.36L128.74 11.8413L128.744 11.8478L128.747 11.8543L129.617 11.36ZM126.497 8.2L125.995 9.06503L126.002 9.06882L126.008 9.0725L126.497 8.2ZM117.537 8.2L118.025 9.0725L118.032 9.06882L118.038 9.06503L117.537 8.2ZM114.377 11.36L113.507 10.8657L113.504 10.8722L113.5 10.8787L114.377 11.36ZM114.377 20.64L113.5 21.1213L113.504 21.1278L113.507 21.1343L114.377 20.64ZM117.537 23.84L117.035 24.705L117.042 24.7088L117.048 24.7125L117.537 23.84ZM122.017 29.48C119.259 29.48 116.796 28.8868 114.608 27.7179L113.666 29.4821C116.17 30.8198 118.961 31.48 122.017 31.48V29.48ZM114.612 27.7202C112.443 26.5484 110.749 24.9503 109.511 22.9194L107.803 23.9606C109.231 26.303 111.191 28.145 113.661 29.4798L114.612 27.7202ZM109.518 22.9316C108.308 20.8829 107.697 18.5806 107.697 16H105.697C105.697 18.9128 106.392 21.5704 107.796 23.9484L109.518 22.9316ZM107.697 16C107.697 13.4193 108.308 11.1325 109.515 9.11295L107.798 8.08704C106.392 10.4409 105.697 13.0873 105.697 16H107.697ZM109.513 9.11601C110.752 7.05912 112.446 5.44999 114.612 4.27982L113.661 2.52018C111.187 3.85668 109.228 5.71421 107.8 8.08399L109.513 9.11601ZM114.608 4.28207C116.796 3.11317 119.259 2.52 122.017 2.52V0.52C118.961 0.52 116.17 1.18016 113.666 2.51792L114.608 4.28207ZM122.017 2.52C124.775 2.52 127.222 3.11321 129.381 4.27982L130.332 2.52018C127.851 1.18012 125.072 0.52 122.017 0.52V2.52ZM129.381 4.27982C131.547 5.44999 133.241 7.05912 134.48 9.11601L136.193 8.08399C134.766 5.71421 132.806 3.85668 130.332 2.52018L129.381 4.27982ZM134.483 9.12061C135.714 11.1391 136.337 13.4232 136.337 16H138.337C138.337 13.0835 137.626 10.4343 136.191 8.07939L134.483 9.12061ZM136.337 16C136.337 18.5767 135.714 20.8763 134.48 22.924L136.193 23.956C137.626 21.577 138.337 18.9166 138.337 16H136.337ZM134.483 22.9194C133.245 24.9503 131.551 26.5484 129.381 27.7202L130.332 29.4798C132.803 28.145 134.762 26.303 136.191 23.9606L134.483 22.9194ZM129.381 27.7202C127.222 28.8868 124.775 29.48 122.017 29.48V31.48C125.072 31.48 127.851 30.8199 130.332 29.4798L129.381 27.7202ZM122.017 25.96C123.827 25.96 125.491 25.5495 126.985 24.7125L126.008 22.9675C124.836 23.6238 123.513 23.96 122.017 23.96V25.96ZM126.998 24.705C128.49 23.8397 129.66 22.6398 130.493 21.1213L128.74 20.1587C128.081 21.3602 127.17 22.2937 125.995 22.975L126.998 24.705ZM130.486 21.1343C131.354 19.6078 131.777 17.8875 131.777 16H129.777C129.777 17.5792 129.426 18.9522 128.747 20.1457L130.486 21.1343ZM131.777 16C131.777 14.1125 131.354 12.3922 130.486 10.8657L128.747 11.8543C129.426 13.0478 129.777 14.4208 129.777 16H131.777ZM130.493 10.8787C129.658 9.35721 128.485 8.16714 126.985 7.32749L126.008 9.0725C127.175 9.7262 128.082 10.6428 128.74 11.8413L130.493 10.8787ZM126.998 7.33497C125.502 6.46681 123.833 6.04 122.017 6.04V8.04C123.507 8.04 124.825 8.38652 125.995 9.06503L126.998 7.33497ZM122.017 6.04C120.2 6.04 118.532 6.46681 117.035 7.33497L118.038 9.06503C119.208 8.38652 120.526 8.04 122.017 8.04V6.04ZM117.048 7.32749C115.552 8.16539 114.369 9.35126 113.507 10.8657L115.246 11.8543C115.932 10.6487 116.855 9.72794 118.025 9.0725L117.048 7.32749ZM113.5 10.8787C112.663 12.4029 112.257 14.1185 112.257 16H114.257C114.257 14.4148 114.597 13.0371 115.253 11.8413L113.5 10.8787ZM112.257 16C112.257 17.8815 112.663 19.5971 113.5 21.1213L115.253 20.1587C114.597 18.9629 114.257 17.5852 114.257 16H112.257ZM113.507 21.1343C114.367 22.6458 115.546 23.8415 117.035 24.705L118.038 22.975C116.861 22.2919 115.933 21.3542 115.246 20.1457L113.507 21.1343ZM117.048 24.7125C118.543 25.5495 120.207 25.96 122.017 25.96V23.96C120.52 23.96 119.197 23.6238 118.025 22.9675L117.048 24.7125ZM151.887 28.6L151.411 29.4798L151.416 29.4821L151.887 28.6ZM146.407 23.44L145.546 23.9484L145.549 23.9545L145.553 23.9606L146.407 23.44ZM146.407 8.6L145.55 8.08398L145.548 8.08704L146.407 8.6ZM151.887 3.4L151.416 2.51791L151.411 2.52018L151.887 3.4ZM173.087 8.6L172.23 9.11602L172.233 9.12061L173.087 8.6ZM173.087 23.44L173.941 23.9606L173.943 23.956L173.087 23.44ZM167.607 28.6L168.082 29.4798L167.607 28.6ZM164.247 23.84L164.735 24.7125L164.742 24.7088L164.748 24.705L164.247 23.84ZM167.367 20.64L166.497 20.1457L166.494 20.1522L166.49 20.1587L167.367 20.64ZM167.367 11.36L166.49 11.8413L166.494 11.8478L166.497 11.8543L167.367 11.36ZM164.247 8.2L163.745 9.06503L163.752 9.06882L163.758 9.0725L164.247 8.2ZM155.287 8.2L155.775 9.0725L155.782 9.06882L155.788 9.06503L155.287 8.2ZM152.127 11.36L151.257 10.8657L151.254 10.8722L151.25 10.8787L152.127 11.36ZM152.127 20.64L151.25 21.1213L151.254 21.1278L151.257 21.1343L152.127 20.64ZM155.287 23.84L154.785 24.705L154.792 24.7088L154.798 24.7125L155.287 23.84ZM159.767 29.48C157.009 29.48 154.546 28.8868 152.358 27.7179L151.416 29.4821C153.92 30.8198 156.711 31.48 159.767 31.48V29.48ZM152.362 27.7202C150.193 26.5484 148.499 24.9503 147.261 22.9194L145.553 23.9606C146.981 26.303 148.941 28.145 151.411 29.4798L152.362 27.7202ZM147.268 22.9316C146.058 20.8829 145.447 18.5806 145.447 16H143.447C143.447 18.9128 144.142 21.5704 145.546 23.9484L147.268 22.9316ZM145.447 16C145.447 13.4193 146.058 11.1325 147.265 9.11295L145.548 8.08704C144.142 10.4409 143.447 13.0873 143.447 16H145.447ZM147.263 9.11601C148.502 7.05912 150.196 5.44999 152.362 4.27982L151.411 2.52018C148.937 3.85668 146.978 5.71421 145.55 8.08399L147.263 9.11601ZM152.358 4.28207C154.546 3.11317 157.009 2.52 159.767 2.52V0.52C156.711 0.52 153.92 1.18016 151.416 2.51792L152.358 4.28207ZM159.767 2.52C162.525 2.52 164.972 3.11321 167.131 4.27982L168.082 2.52018C165.601 1.18012 162.822 0.52 159.767 0.52V2.52ZM167.131 4.27982C169.297 5.44999 170.991 7.05912 172.23 9.11601L173.943 8.08399C172.516 5.71421 170.556 3.85668 168.082 2.52018L167.131 4.27982ZM172.233 9.12061C173.464 11.1391 174.087 13.4232 174.087 16H176.087C176.087 13.0835 175.376 10.4343 173.941 8.07939L172.233 9.12061ZM174.087 16C174.087 18.5767 173.464 20.8763 172.23 22.924L173.943 23.956C175.376 21.577 176.087 18.9166 176.087 16H174.087ZM172.233 22.9194C170.995 24.9503 169.301 26.5484 167.131 27.7202L168.082 29.4798C170.553 28.145 172.512 26.303 173.941 23.9606L172.233 22.9194ZM167.131 27.7202C164.972 28.8868 162.525 29.48 159.767 29.48V31.48C162.822 31.48 165.601 30.8199 168.082 29.4798L167.131 27.7202ZM159.767 25.96C161.577 25.96 163.241 25.5495 164.735 24.7125L163.758 22.9675C162.586 23.6238 161.263 23.96 159.767 23.96V25.96ZM164.748 24.705C166.24 23.8397 167.41 22.6398 168.243 21.1213L166.49 20.1587C165.831 21.3602 164.92 22.2937 163.745 22.975L164.748 24.705ZM168.236 21.1343C169.104 19.6078 169.527 17.8875 169.527 16H167.527C167.527 17.5792 167.176 18.9522 166.497 20.1457L168.236 21.1343ZM169.527 16C169.527 14.1125 169.104 12.3922 168.236 10.8657L166.497 11.8543C167.176 13.0478 167.527 14.4208 167.527 16H169.527ZM168.243 10.8787C167.408 9.35721 166.235 8.16714 164.735 7.32749L163.758 9.0725C164.925 9.7262 165.832 10.6428 166.49 11.8413L168.243 10.8787ZM164.748 7.33497C163.252 6.46681 161.583 6.04 159.767 6.04V8.04C161.257 8.04 162.575 8.38652 163.745 9.06503L164.748 7.33497ZM159.767 6.04C157.95 6.04 156.282 6.46681 154.785 7.33497L155.788 9.06503C156.958 8.38652 158.276 8.04 159.767 8.04V6.04ZM154.798 7.32749C153.302 8.16539 152.119 9.35126 151.257 10.8657L152.996 11.8543C153.682 10.6487 154.605 9.72794 155.775 9.0725L154.798 7.32749ZM151.25 10.8787C150.413 12.4029 150.007 14.1185 150.007 16H152.007C152.007 14.4148 152.347 13.0371 153.003 11.8413L151.25 10.8787ZM150.007 16C150.007 17.8815 150.413 19.5971 151.25 21.1213L153.003 20.1587C152.347 18.9629 152.007 17.5852 152.007 16H150.007ZM151.257 21.1343C152.117 22.6458 153.296 23.8415 154.785 24.705L155.788 22.975C154.611 22.2919 153.683 21.3542 152.996 20.1457L151.257 21.1343ZM154.798 24.7125C156.293 25.5495 157.957 25.96 159.767 25.96V23.96C158.27 23.96 156.947 23.6238 155.775 22.9675L154.798 24.7125ZM209.437 30L208.437 30.0024L208.439 31H209.437V30ZM209.397 13.2L210.397 13.1976L210.388 9.5801L208.537 12.6884L209.397 13.2ZM201.157 27.04V28.04H201.725L202.016 27.5516L201.157 27.04ZM198.237 27.04L197.382 27.5597L197.675 28.04H198.237V27.04ZM190.037 13.56L190.891 13.0403L189.037 9.99193V13.56H190.037ZM190.037 30V31H191.037V30H190.037ZM183.957 30H182.957V31H183.957V30ZM183.957 2V0.999998H182.957V2H183.957ZM189.317 2L190.173 1.48406L189.882 0.999998H189.317V2ZM199.797 19.4L198.94 19.9159L199.803 21.3492L200.657 19.9101L199.797 19.4ZM210.117 2V0.999998H209.547L209.257 1.48987L210.117 2ZM215.437 2L216.437 1.99714L216.434 0.999998H215.437V2ZM215.517 30V31H216.52L216.517 29.9971L215.517 30ZM210.437 29.9976L210.397 13.1976L208.397 13.2024L208.437 30.0024L210.437 29.9976ZM208.537 12.6884L200.297 26.5284L202.016 27.5516L210.256 13.7116L208.537 12.6884ZM201.157 26.04H198.237V28.04H201.157V26.04ZM199.091 26.5203L190.891 13.0403L189.182 14.0797L197.382 27.5597L199.091 26.5203ZM189.037 13.56V30H191.037V13.56H189.037ZM190.037 29H183.957V31H190.037V29ZM184.957 30V2H182.957V30H184.957ZM183.957 3H189.317V0.999998H183.957V3ZM188.46 2.51594L198.94 19.9159L200.653 18.8841L190.173 1.48406L188.46 2.51594ZM200.657 19.9101L210.977 2.51013L209.257 1.48987L198.937 18.8899L200.657 19.9101ZM210.117 3H215.437V0.999998H210.117V3ZM214.437 2.00286L214.517 30.0029L216.517 29.9971L216.437 1.99714L214.437 2.00286ZM215.517 29H209.437V31H215.517V29Z" fill="url(#paint1_linear_721_4887)"/>
<path d="M62.4183 55.3C60.6349 55.3 59.0183 54.9167 57.5683 54.15C56.1349 53.3667 55.0016 52.2917 54.1683 50.925C53.3516 49.5417 52.9433 47.9833 52.9433 46.25C52.9433 44.5167 53.3516 42.9667 54.1683 41.6C55.0016 40.2167 56.1349 39.1417 57.5683 38.375C59.0183 37.5917 60.6433 37.2 62.4433 37.2C63.9599 37.2 65.3266 37.4667 66.5433 38C67.7766 38.5333 68.8099 39.3 69.6433 40.3L67.0433 42.7C65.8599 41.3333 64.3933 40.65 62.6433 40.65C61.5599 40.65 60.5933 40.8917 59.7433 41.375C58.8933 41.8417 58.2266 42.5 57.7433 43.35C57.2766 44.2 57.0433 45.1667 57.0433 46.25C57.0433 47.3333 57.2766 48.3 57.7433 49.15C58.2266 50 58.8933 50.6667 59.7433 51.15C60.5933 51.6167 61.5599 51.85 62.6433 51.85C64.3933 51.85 65.8599 51.1583 67.0433 49.775L69.6433 52.175C68.8099 53.1917 67.7766 53.9667 66.5433 54.5C65.3099 55.0333 63.9349 55.3 62.4183 55.3ZM86.0614 51.25H77.9364L76.3864 55H72.2364L80.0364 37.5H84.0364L91.8614 55H87.6114L86.0614 51.25ZM84.7864 48.175L82.0114 41.475L79.2364 48.175H84.7864ZM101.927 55.3C100.544 55.3 99.2021 55.1167 97.9021 54.75C96.6187 54.3667 95.5854 53.875 94.8021 53.275L96.1771 50.225C96.9271 50.775 97.8187 51.2167 98.8521 51.55C99.8854 51.8833 100.919 52.05 101.952 52.05C103.102 52.05 103.952 51.8833 104.502 51.55C105.052 51.2 105.327 50.7417 105.327 50.175C105.327 49.7583 105.16 49.4167 104.827 49.15C104.51 48.8667 104.094 48.6417 103.577 48.475C103.077 48.3083 102.394 48.125 101.527 47.925C100.194 47.6083 99.1021 47.2917 98.2521 46.975C97.4021 46.6583 96.6687 46.15 96.0521 45.45C95.4521 44.75 95.1521 43.8167 95.1521 42.65C95.1521 41.6333 95.4271 40.7167 95.9771 39.9C96.5271 39.0667 97.3521 38.4083 98.4521 37.925C99.5687 37.4417 100.927 37.2 102.527 37.2C103.644 37.2 104.735 37.3333 105.802 37.6C106.869 37.8667 107.802 38.25 108.602 38.75L107.352 41.825C105.735 40.9083 104.119 40.45 102.502 40.45C101.369 40.45 100.527 40.6333 99.9771 41C99.4437 41.3667 99.1771 41.85 99.1771 42.45C99.1771 43.05 99.4854 43.5 100.102 43.8C100.735 44.0833 101.694 44.3667 102.977 44.65C104.31 44.9667 105.402 45.2833 106.252 45.6C107.102 45.9167 107.827 46.4167 108.427 47.1C109.044 47.7833 109.352 48.7083 109.352 49.875C109.352 50.875 109.069 51.7917 108.502 52.625C107.952 53.4417 107.119 54.0917 106.002 54.575C104.885 55.0583 103.527 55.3 101.927 55.3ZM114.619 37.5H118.669V55H114.619V37.5ZM141.373 37.5V55H138.048L129.323 44.375V55H125.323V37.5H128.673L137.373 48.125V37.5H141.373ZM156.488 55.3C154.671 55.3 153.03 54.9083 151.563 54.125C150.113 53.3417 148.971 52.2667 148.138 50.9C147.321 49.5167 146.913 47.9667 146.913 46.25C146.913 44.5333 147.321 42.9917 148.138 41.625C148.971 40.2417 150.113 39.1583 151.563 38.375C153.03 37.5917 154.671 37.2 156.488 37.2C158.305 37.2 159.938 37.5917 161.388 38.375C162.838 39.1583 163.98 40.2417 164.813 41.625C165.646 42.9917 166.063 44.5333 166.063 46.25C166.063 47.9667 165.646 49.5167 164.813 50.9C163.98 52.2667 162.838 53.3417 161.388 54.125C159.938 54.9083 158.305 55.3 156.488 55.3ZM156.488 51.85C157.521 51.85 158.455 51.6167 159.288 51.15C160.121 50.6667 160.771 50 161.238 49.15C161.721 48.3 161.963 47.3333 161.963 46.25C161.963 45.1667 161.721 44.2 161.238 43.35C160.771 42.5 160.121 41.8417 159.288 41.375C158.455 40.8917 157.521 40.65 156.488 40.65C155.455 40.65 154.521 40.8917 153.688 41.375C152.855 41.8417 152.196 42.5 151.713 43.35C151.246 44.2 151.013 45.1667 151.013 46.25C151.013 47.3333 151.246 48.3 151.713 49.15C152.196 50 152.855 50.6667 153.688 51.15C154.521 51.6167 155.455 51.85 156.488 51.85Z" fill="url(#paint2_linear_721_4887)"/>
<defs>
<linearGradient id="paint0_linear_721_4887" x1="216.75" y1="15.1395" x2="3.62755e-07" y2="15.1395" gradientUnits="userSpaceOnUse">
<stop stop-color="#C711A4"/>
<stop offset="1" stop-color="white"/>
</linearGradient>
<linearGradient id="paint1_linear_721_4887" x1="110.5" y1="0" x2="110.5" y2="31" gradientUnits="userSpaceOnUse">
<stop stop-color="#CA9336"/>
<stop offset="0.234375" stop-color="#FAD177"/>
<stop offset="0.526042" stop-color="#F2D88A"/>
<stop offset="0.75" stop-color="#F8D37D"/>
<stop offset="1" stop-color="#D7A447"/>
</linearGradient>
<linearGradient id="paint2_linear_721_4887" x1="109.5" y1="39" x2="109.5" y2="54" gradientUnits="userSpaceOnUse">
<stop stop-color="#CA9336"/>
<stop offset="0.234375" stop-color="#FAD177"/>
<stop offset="0.526042" stop-color="#F2D88A"/>
<stop offset="0.75" stop-color="#F8D37D"/>
<stop offset="1" stop-color="#D7A447"/>
</linearGradient>
</defs>
</svg>
