<svg width="30" height="30" viewBox="0 0 30 30" fill="none" xmlns="http://www.w3.org/2000/svg">
<path d="M7.90364 19.4448L8.41623 19.8933L8.69055 19.2699C13.7605 7.74716 14.2346 6.6344 14.7255 5.52912C14.77 5.42877 14.8147 5.32848 14.863 5.22046C14.9113 5.32848 14.956 5.42877 15.0006 5.52912C15.4915 6.6344 15.9655 7.74716 21.0355 19.2699L21.3098 19.8933L21.8224 19.4448L24.9868 16.676L25.3824 16.3299L25.4318 16.2866L25.438 16.2812L25.4384 16.2808L25.4388 16.2805L25.4388 16.2805L25.4388 16.2804L25.4389 16.2804L25.439 16.2803L25.4398 16.2796L25.4459 16.2742L25.4954 16.231L25.8909 15.8849L27.9223 14.1074C27.2188 17.3571 26.475 20.5388 25.7231 23.7553C25.5874 24.3355 25.4515 24.9169 25.3156 25.5C23.3643 25.4997 21.4137 25.4973 19.4628 25.495C17.93 25.4932 16.397 25.4913 14.8633 25.4905H14.8628C13.3291 25.4913 11.7961 25.4932 10.2633 25.495C8.31237 25.4973 6.36176 25.4997 4.41051 25.5C4.27453 24.9169 4.13862 24.3355 4.00298 23.7553C3.25103 20.5388 2.50723 17.3571 1.80373 14.1074L3.83514 15.8849L4.23068 16.231L4.28013 16.2742L4.28631 16.2796L4.28709 16.2803L4.28721 16.2804L4.28724 16.2804L4.28725 16.2805L4.2873 16.2805L4.28731 16.2805L4.28765 16.2808L4.28766 16.2808L4.28808 16.2812L4.29426 16.2866L4.3437 16.3299L4.73925 16.676L7.90364 19.4448Z" fill="url(#paint0_linear_1078_12461)" stroke="url(#paint1_linear_1078_12461)"/>
<path d="M7.59357 11.4508L7.59325 11.4505L7.59016 11.4477L7.56544 11.425L7.36766 11.2437L6.30516 10.2698L5.79177 11.4676L5.69288 11.6984L5.68052 11.7272L5.67919 11.7303L5.67898 11.7308L5.67887 11.7311L5.67887 11.7311L5.67881 11.7312L5.6788 11.7312L5.67879 11.7313L5.67879 11.7313L5.67878 11.7313L5.67874 11.7314L5.67854 11.7319L5.67699 11.7355L5.66463 11.7643L5.56574 11.995L4.91432 13.515L4.91465 13.5153L4.93367 13.5327L4.95252 13.55L4.97123 13.5672L4.98977 13.5842L5.00816 13.601L5.0264 13.6177L5.04449 13.6343L5.06242 13.6508L5.0802 13.6671L5.09783 13.6832L5.11531 13.6992L5.13264 13.7151L5.14982 13.7309L5.16685 13.7465L5.18373 13.762L5.20046 13.7773L5.21705 13.7925L5.23349 13.8076L5.24979 13.8225L5.26594 13.8373L5.28195 13.852L5.29781 13.8665L5.31353 13.8809L5.32911 13.8952L5.34455 13.9094L5.35985 13.9234L5.375 13.9373L5.39002 13.9511L5.40489 13.9647L5.41963 13.9782L5.43423 13.9916L5.4487 14.0048L5.46302 14.018L5.47722 14.031L5.49127 14.0439L5.50519 14.0566L5.51898 14.0693L5.53264 14.0818L5.54616 14.0942L5.55955 14.1065L5.57281 14.1186L5.58594 14.1306L5.59893 14.1426L5.6118 14.1544L5.62454 14.166L5.63716 14.1776L5.64964 14.189L5.662 14.2004L5.67423 14.2116L5.68634 14.2227L5.69832 14.2337L5.71018 14.2445L5.72191 14.2553L5.73352 14.2659L5.74501 14.2765L5.75638 14.2869L5.76763 14.2972L5.77875 14.3074L5.78976 14.3175L5.80065 14.3275L5.81141 14.3373L5.82207 14.3471L5.8326 14.3568L5.84302 14.3663L5.85332 14.3758L5.86351 14.3851L5.87358 14.3943L5.88354 14.4035L5.89339 14.4125L5.90312 14.4214L5.91274 14.4302L5.92225 14.4389L5.93165 14.4476L5.94094 14.4561L5.95012 14.4645L5.95919 14.4728L5.96816 14.481L5.97701 14.4891L5.98576 14.4972L5.99441 14.5051L6.00294 14.5129L6.01138 14.5206L6.01971 14.5283L6.02793 14.5358L6.03606 14.5433L6.04408 14.5506L6.052 14.5579L6.05981 14.565L6.06753 14.5721L6.07515 14.5791L6.08267 14.586L6.09009 14.5928L6.09742 14.5995L6.10464 14.6061L6.11177 14.6127L6.11881 14.6191L6.12575 14.6255L6.13259 14.6318L6.13934 14.6379L6.146 14.644L6.15257 14.6501L6.15904 14.656L6.16542 14.6619L6.17172 14.6676L6.17792 14.6733L6.18403 14.6789L6.19006 14.6844L6.19599 14.6899L6.20184 14.6952L6.20761 14.7005L6.21328 14.7057L6.21887 14.7108L6.22438 14.7159L6.2298 14.7209L6.23514 14.7258L6.2404 14.7306L6.24557 14.7353L6.25067 14.74L6.25568 14.7446L6.26061 14.7491L6.26546 14.7536L6.27023 14.7579L6.27493 14.7622L6.27955 14.7665L6.28409 14.7706L6.28855 14.7747L6.29294 14.7787L6.29725 14.7827L6.30149 14.7866L6.30566 14.7904L6.30975 14.7942L6.31377 14.7978L6.31772 14.8015L6.32159 14.805L6.3254 14.8085L6.32914 14.8119L6.33281 14.8153L6.3364 14.8186L6.33993 14.8218L6.3434 14.825L6.3468 14.8281L6.35013 14.8312L6.35339 14.8342L6.35659 14.8371L6.35973 14.84L6.3628 14.8428L6.36582 14.8455L6.36876 14.8483L6.37165 14.8509L6.37448 14.8535L6.37725 14.856L6.37995 14.8585L6.3826 14.8609L6.38519 14.8633L6.38772 14.8656L6.3902 14.8679L6.39262 14.8701L6.39498 14.8723L6.39729 14.8744L6.39955 14.8765L6.40175 14.8785L6.40389 14.8805L6.40599 14.8824L6.40803 14.8842L6.41003 14.8861L6.41197 14.8879L6.41386 14.8896L6.4157 14.8913L6.4175 14.8929L6.41924 14.8945L6.42094 14.8961L6.4226 14.8976L6.4242 14.8991L6.42577 14.9005L6.42728 14.9019L6.42876 14.9032L6.43019 14.9046L6.43157 14.9058L6.43292 14.9071L6.43422 14.9083L6.43549 14.9094L6.43671 14.9105L6.43789 14.9116L6.43904 14.9127L6.44014 14.9137L6.44121 14.9147L6.44224 14.9156L6.44324 14.9165L6.4442 14.9174L6.44513 14.9182L6.44602 14.9191L6.44688 14.9199L6.4477 14.9206L6.44849 14.9213L6.44925 14.922L6.44998 14.9227L6.45068 14.9233L6.45135 14.924L6.45199 14.9245L6.4526 14.9251L6.45319 14.9256L6.45374 14.9261L6.45427 14.9266L6.45478 14.9271L6.45526 14.9275L6.45571 14.928L6.45614 14.9283L6.45655 14.9287L6.45694 14.9291L6.4573 14.9294L6.45764 14.9297L6.45796 14.93L6.45826 14.9303L6.45854 14.9305L6.45881 14.9308L6.45905 14.931L6.45928 14.9312L6.45949 14.9314L6.45968 14.9316L6.45986 14.9318L6.46002 14.9319L6.46017 14.932L6.46031 14.9322L6.46043 14.9323L6.46054 14.9324L6.46064 14.9325L6.46073 14.9326L6.46081 14.9326L6.46088 14.9327L6.46094 14.9327L6.46099 14.9328L6.46103 14.9328L6.46106 14.9329L6.46109 14.9329L6.46112 14.9329L6.46114 14.9329L6.46115 14.9329L6.46116 14.9329L6.46117 14.933L6.46117 14.933L6.46117 14.933L6.46118 14.933L6.46118 14.933L6.46119 14.933L6.4612 14.933L6.46121 14.933L6.46123 14.933L6.46125 14.933L6.46128 14.9331L6.46132 14.9331L6.46136 14.9331L6.46141 14.9332L6.46147 14.9332L6.46154 14.9333L6.46161 14.9334L6.4617 14.9334L6.4618 14.9335L6.46191 14.9336L6.46203 14.9337L6.46217 14.9339L6.46232 14.934L6.46248 14.9342L6.46266 14.9343L6.46286 14.9345L6.46307 14.9347L6.46329 14.9349L6.46354 14.9351L6.4638 14.9354L6.46408 14.9356L6.46438 14.9359L6.4647 14.9362L6.46505 14.9365L6.46541 14.9368L6.46579 14.9372L6.4662 14.9376L6.46663 14.938L6.46709 14.9384L6.46757 14.9388L6.46807 14.9393L6.4686 14.9398L6.46916 14.9403L6.46974 14.9408L6.47035 14.9414L6.47099 14.942L6.47166 14.9426L6.47236 14.9432L6.47309 14.9439L6.47385 14.9446L6.47464 14.9453L6.47547 14.9461L6.47633 14.9469L6.47722 14.9477L6.47814 14.9485L6.4791 14.9494L6.4801 14.9503L6.48113 14.9513L6.4822 14.9522L6.48331 14.9532L6.48445 14.9543L6.48564 14.9554L6.48686 14.9565L6.48812 14.9577L6.48943 14.9589L6.49077 14.9601L6.49216 14.9614L6.49359 14.9627L6.49506 14.964L6.49658 14.9654L6.49814 14.9668L6.49975 14.9683L6.5014 14.9698L6.5031 14.9714L6.50485 14.973L6.50664 14.9746L6.50849 14.9763L6.51038 14.9781L6.51232 14.9798L6.51431 14.9817L6.51636 14.9835L6.51845 14.9855L6.5206 14.9874L6.5228 14.9895L6.52505 14.9915L6.52736 14.9936L6.52973 14.9958L6.53215 14.998L6.53462 15.0003L6.53715 15.0026L6.53974 15.005L6.54239 15.0074L6.5451 15.0099L6.54787 15.0124L6.55069 15.015L6.55358 15.0177L6.55653 15.0204L6.55954 15.0231L6.56261 15.0259L6.56575 15.0288L6.56895 15.0318L6.57222 15.0348L6.57555 15.0378L6.57895 15.0409L6.58241 15.0441L6.58594 15.0473L6.58954 15.0506L6.59321 15.054L6.59694 15.0574L6.60075 15.0609L6.60463 15.0645L6.60858 15.0681L6.6126 15.0718L6.61669 15.0755L6.62085 15.0793L6.62509 15.0832L6.62941 15.0872L6.63379 15.0912L6.63826 15.0953L6.6428 15.0995L6.64742 15.1037L6.65211 15.108L6.65688 15.1124L6.66174 15.1168L6.66667 15.1213L6.67168 15.1259L6.67677 15.1306L6.68195 15.1353L6.6872 15.1402L6.69254 15.1451L6.69796 15.15L6.70347 15.1551L6.70906 15.1602L6.71474 15.1654L6.7205 15.1707L6.72635 15.176L6.73229 15.1815L6.73831 15.187L6.74443 15.1926L6.75063 15.1983L6.75692 15.2041L6.7633 15.2099L6.76978 15.2158L6.77634 15.2219L6.783 15.228L6.78975 15.2342L6.7966 15.2404L6.80354 15.2468L6.81057 15.2532L6.8177 15.2598L6.82493 15.2664L6.83225 15.2731L6.83967 15.2799L6.84719 15.2868L6.85481 15.2938L6.86253 15.3009L6.87035 15.308L6.87827 15.3153L6.88629 15.3227L6.89441 15.3301L6.90264 15.3376L6.91097 15.3453L6.9194 15.353L6.92794 15.3608L6.93658 15.3688L6.94533 15.3768L6.95419 15.3849L6.96315 15.3931L6.97222 15.4014L6.9814 15.4098L6.99069 15.4184L7.00009 15.427L7.0096 15.4357L7.01923 15.4445L7.02896 15.4534L7.0388 15.4625L7.04876 15.4716L7.05884 15.4808L7.06902 15.4902L7.07933 15.4996L7.08974 15.5092L7.10028 15.5188L7.11093 15.5286L7.1217 15.5384L7.13259 15.5484L7.14359 15.5585L7.15472 15.5687L7.16597 15.579L7.17733 15.5894L7.18882 15.6L7.20043 15.6106L7.21217 15.6214L7.22403 15.6322L7.23601 15.6432L7.24811 15.6543L7.26035 15.6655L7.2727 15.6769L7.28519 15.6883L7.2978 15.6999L7.31054 15.7116L7.32341 15.7234L7.33641 15.7353L7.34954 15.7473L7.3628 15.7595L7.37619 15.7717L7.38971 15.7841L7.40336 15.7966L7.41715 15.8093L7.43107 15.822L7.44513 15.8349L7.45932 15.8479L7.47365 15.8611L7.48811 15.8743L7.50271 15.8877L7.51745 15.9012L7.53233 15.9149L7.54734 15.9286L7.5625 15.9425L7.5778 15.9565L7.59323 15.9707L7.60881 15.985L7.62453 15.9994L7.6404 16.0139L7.6564 16.0286L7.67255 16.0434L7.68885 16.0583L7.70529 16.0734L7.72188 16.0886L7.73862 16.104L7.7497 16.1141L9.14054 12.8688L7.81972 11.6581L7.62195 11.4768L7.59722 11.4542L7.59413 11.4513L7.59375 11.451L7.59369 11.4509L7.59368 11.4509L7.59366 11.4509L7.59366 11.4509L7.59364 11.4509L7.59357 11.4508ZM7.59357 11.4508C7.58114 11.439 7.56911 11.4268 7.56878 11.4264L7.56881 11.4265C7.56954 11.4272 7.58135 11.4392 7.59357 11.4508Z" fill="url(#paint2_linear_1078_12461)" stroke="url(#paint3_linear_1078_12461)"/>
<path d="M24.1603 11.995L24.8117 13.515L23.4909 14.7258L23.2931 14.9071L23.2684 14.9297L23.2653 14.9326L23.2651 14.9328L23.2651 14.9328L23.2649 14.9329L23.2649 14.9329L23.2649 14.9329L23.2649 14.9329L23.2649 14.9329L23.2649 14.933L23.2648 14.933L23.2645 14.9334L23.2614 14.9362L23.2366 14.9589L23.0389 15.1402L21.9764 16.1141L20.5855 12.8688L21.9063 11.6581L22.1041 11.4768L22.1288 11.4542L22.1319 11.4513L22.1323 11.451L22.1324 11.4509L22.1324 11.4509L22.1324 11.4509L22.1324 11.4509L22.1324 11.4509L22.1325 11.4508L22.1325 11.4508L22.1328 11.4505L22.1329 11.4505L22.1359 11.4477L22.1606 11.425L22.3584 11.2437L23.4209 10.2698L23.9343 11.4676L24.0332 11.6984L24.0455 11.7272L24.047 11.7307L24.0471 11.7308L24.0472 11.7312L24.0473 11.7313L24.0473 11.7313L24.0473 11.7313L24.0473 11.7313L24.0473 11.7314L24.0475 11.7319L24.0491 11.7355L24.0614 11.7643L24.1603 11.995Z" fill="url(#paint4_linear_1078_12461)" stroke="url(#paint5_linear_1078_12461)"/>
<defs>
<linearGradient id="paint0_linear_1078_12461" x1="28.1929" y1="14.7442" x2="1" y2="14.7442" gradientUnits="userSpaceOnUse">
<stop stop-color="#C711A4"/>
<stop offset="1" stop-color="white"/>
</linearGradient>
<linearGradient id="paint1_linear_1078_12461" x1="14.863" y1="4" x2="14.863" y2="26" gradientUnits="userSpaceOnUse">
<stop stop-color="#CA9336"/>
<stop offset="0.234375" stop-color="#FAD177"/>
<stop offset="0.526042" stop-color="#F2D88A"/>
<stop offset="0.75" stop-color="#F8D37D"/>
<stop offset="1" stop-color="#D7A447"/>
</linearGradient>
<linearGradient id="paint2_linear_1078_12461" x1="9.63547" y1="13.1044" x2="4.31506" y2="13.1044" gradientUnits="userSpaceOnUse">
<stop stop-color="#C711A4"/>
<stop offset="1" stop-color="white"/>
</linearGradient>
<linearGradient id="paint3_linear_1078_12461" x1="7.02743" y1="9.4248" x2="7.02743" y2="16.9591" gradientUnits="userSpaceOnUse">
<stop stop-color="#CA9336"/>
<stop offset="0.234375" stop-color="#FAD177"/>
<stop offset="0.526042" stop-color="#F2D88A"/>
<stop offset="0.75" stop-color="#F8D37D"/>
<stop offset="1" stop-color="#D7A447"/>
</linearGradient>
<linearGradient id="paint4_linear_1078_12461" x1="25.3067" y1="13.1044" x2="19.9863" y2="13.1044" gradientUnits="userSpaceOnUse">
<stop stop-color="#C711A4"/>
<stop offset="1" stop-color="white"/>
</linearGradient>
<linearGradient id="paint5_linear_1078_12461" x1="22.6986" y1="9.4248" x2="22.6986" y2="16.9591" gradientUnits="userSpaceOnUse">
<stop stop-color="#CA9336"/>
<stop offset="0.234375" stop-color="#FAD177"/>
<stop offset="0.526042" stop-color="#F2D88A"/>
<stop offset="0.75" stop-color="#F8D37D"/>
<stop offset="1" stop-color="#D7A447"/>
</linearGradient>
</defs>
</svg>
