<svg xmlns="http://www.w3.org/2000/svg"><symbol id="svg-nl" viewBox="0 0 1024 1024"><path fill="#003299" d="M1024 512c0 282.77-229.23 512-512 512S0 794.77 0 512 229.23 0 512 0s512 229.23 512 512z"/><path fill="#ffcb00" d="m206.171 330.663-38.985-.121 15.199 12.417c5.523 3.951 9.877 7.458 15.683 10.603l-11.651 38.783c11.208-6.168 20.722-15.723 32.373-22.093 12.417 6.491 21.327 16.086 33.018 22.052l-12.336-38.098c8.023-5.886 26.568-17.376 31.526-23.302l-38.864-.443-12.86-37.493-13.102 37.694zm585.897-.08-38.944.081c8.103 9.595 22.173 14.876 30.841 24.794l-11.691 36.929c10.845-5.12 21.81-17.456 32.897-22.133 11.53 5.846 20.077 15.642 31.929 22.012l-11.691-38.46c6.37-3.266 10.724-6.813 16.207-10.804 2.5-1.774 5.322-3.83 7.539-5.483 1.451-1.089 1.895-1.33 3.266-2.54l4.515-4.435-38.743-.04-12.78-37.251-13.344 37.332zM206.171 668.946l-38.985-.121c1.854 2.258.927 1.25 3.346 3.427l27.535 19.633-11.651 38.743c11.208-6.128 20.722-15.723 32.373-22.093 12.417 6.491 21.327 16.126 33.018 22.093l-12.336-38.138c8.023-5.886 26.568-17.335 31.526-23.262l-38.864-.443-12.86-37.533-13.102 37.694zm123.928-462.211-39.388.121c8.748 9.514 22.052 14.917 31.083 24.552l-11.611 36.808c6.168-1.492 23.947-17.295 32.655-21.851 11.409 5.563 20.077 15.884 32.01 21.891l-11.449-38.138c8.466-5.886 26.043-16.771 31.728-22.98l-39.509-.484-12.135-37.009-13.385 37.09zm338.283 0-39.388.121c8.748 9.514 22.052 14.917 31.123 24.552l-11.651 36.808c6.209-1.492 23.947-17.295 32.655-21.851 11.449 5.563 20.117 15.884 32.01 21.891l-11.449-38.138c8.506-5.886 26.084-16.771 31.728-22.98l-39.468-.484-12.175-37.009-13.385 37.09zm123.686 462.171-38.944.04c8.103 9.635 22.173 14.876 30.841 24.794l-11.691 36.929c10.845-5.12 21.81-17.456 32.897-22.133 11.53 5.846 20.077 15.683 31.929 22.012l-11.691-38.46 23.746-16.287c1.451-1.089 1.895-1.33 3.266-2.54l4.475-4.394-38.702-.04-12.78-37.291-13.344 37.372zM499.099 161.461l-38.944.081c8.708 9.555 23.181 15.562 30.841 24.753l-11.772 36.727c7.902-2.379 22.738-17.094 32.776-21.972 10.28 4.596 20.923 15.884 32.05 21.931l-11.248-36.606c9.151-9.998 22.939-15.36 31.163-24.471l-38.783-.605-12.578-36.888-13.506 37.049zM160.776 499.785l-38.904.04c8.708 9.555 23.141 15.602 30.841 24.794l-11.772 36.727c7.861-2.379 22.738-17.134 32.736-22.012 10.28 4.636 20.964 15.884 32.05 21.931l-11.248-36.606c9.192-9.998 22.98-15.36 31.163-24.431l-38.783-.605-12.538-36.929-13.546 37.09zm338.323 338.282-38.944.081c8.708 9.555 23.181 15.562 30.841 24.753l-11.772 36.727c7.902-2.379 22.738-17.094 32.776-22.012 10.28 4.636 20.923 15.924 32.05 21.972l-11.248-36.606c9.151-9.998 22.939-15.4 31.163-24.471l-38.783-.605-12.578-36.929-13.506 37.09zm338.283-338.282-38.944.04c8.748 9.555 23.181 15.602 30.881 24.794l-11.812 36.727c7.902-2.379 22.738-17.134 32.776-22.012 10.28 4.636 20.923 15.924 32.05 21.931l-11.248-36.606c9.151-9.998 22.939-15.36 31.163-24.431l-38.783-.605-12.578-36.929-13.506 37.09zM667.575 792.592h-37.936c2.177 2.741.685 1.089 3.346 3.548l27.374 19.754-11.853 38.178c12.417-6.41 20.682-14.594 32.615-21.73 12.215 6.773 20.037 14.917 32.091 21.851l-11.732-38.098 31.244-23.504h-38.017c-5.886-9.877-7.337-26.527-13.586-36.687-6.209 10.119-7.7 26.809-13.546 36.687zm-338.323 0h-37.896l7.66 7.136c2.137 1.693 4.999 3.749 7.499 5.523 5.241 3.669 10.28 7.66 15.521 10.643l-11.812 38.178c12.417-6.41 20.682-14.594 32.615-21.73 12.175 6.773 19.996 14.917 32.091 21.851l-11.732-38.098 26.769-18.867 1.129-1.008a29.07 29.07 0 0 0 1.089-1.169l-35.759-2.459c-5.886-9.877-7.378-26.527-13.586-36.687-6.209 10.119-7.7 26.809-13.586 36.687z"/></symbol><symbol id="svg-au" viewBox="0 0 1024 1024"><path fill="#00247d" d="M1024 512c0 282.77-229.23 512-512 512S0 794.77 0 512 229.23 0 512 0s512 229.23 512 512z"/><path fill="#fff" d="M66.901 258.731c54.955-96.256 140.288-173.056 242.688-217.088v24.235L415.402 9.217C446.463 3.073 478.549.001 511.658.001v20.48L401.749 79.19h109.909v90.112H401.749l109.909 58.709v31.061h-59.733l-142.336-76.117v76.117H208.554v-76.117L66.901 258.731z"/><path fill="#ce1124" d="M511.659 97.28H289.11V50.859c-20.821 10.24-41.301 21.845-60.757 34.816V97.28h-16.384c-22.528 16.043-43.691 34.133-63.147 53.931h79.531v107.861h60.757V151.211h222.549V97.28z"/><path fill="#fff" d="m248.149 306.859-14.677 47.787-45.397-18.773 26.965 43.349-41.643 26.965 48.469 3.072-6.827 52.224 33.792-38.229 33.451 38.912-6.827-52.565 47.787-4.096-40.96-26.283 26.624-43.008-45.056 18.773zm311.296-122.198-6.827 22.187-21.163-8.875 12.629 20.139-19.456 12.629 22.528 1.365-3.072 23.893 15.36-17.408 15.701 18.091-3.072-24.576 21.845-1.707-18.773-12.288 12.288-19.797-20.821 8.533zM686.08 40.96l-6.827 22.187-20.821-8.533 12.288 19.797-19.115 12.629 22.187 1.365-3.072 24.235 15.701-17.749 15.36 18.091-3.072-24.576 22.187-1.707-19.115-12.288 12.288-19.797-20.821 8.533zm110.933 108.203-6.827 22.187-21.163-8.875 12.288 20.139-19.115 12.629 22.528 1.365-3.413 24.235 15.701-17.749 15.701 18.091-3.072-24.576 21.845-1.707-18.773-12.288 12.288-19.797-20.821 8.533zM686.08 393.899l-6.827 22.187-20.821-8.875 12.288 20.139-19.115 12.288 22.187 1.365-3.072 24.235 15.701-17.749 15.36 18.091-3.072-24.235 22.187-2.048-19.115-11.947 12.288-19.797-20.821 8.533zm51.2-145.75 5.803 18.432h18.432l-15.019 11.605 5.803 18.432-15.019-11.264-15.019 11.264 5.803-18.432-15.019-11.605h18.432z"/><path fill="#ce1124" d="M342.357 169.301 512 259.072v-21.163l-129.365-68.608zm-167.253 0L98.645 209.92c-7.851 10.923-15.36 21.845-22.187 33.109l132.096-70.315v-3.413h-33.451zM445.099 4.437l-135.168 71.68v2.731h34.475L490.497.341A498.42 498.42 0 0 0 445.1 4.437z"/></symbol><symbol id="svg-az" viewBox="0 0 1024 1024"><path fill="#4a92c7" d="M29.355 341.333h965.29C924.672 143.018 735.573.682 513.365 0h-2.731C288.426.683 99.327 143.019 29.354 341.333z"/><path fill="#d4223e" d="M29.355 682.667h965.29C1013.76 629.419 1024 572.075 1024 512c0-59.733-10.24-117.419-29.355-170.667H29.355C10.582 394.581 0 452.266 0 512c0 60.075 10.581 117.419 29.355 170.667z"/><path fill="#4ca95e" d="M502.443 1024h19.115c218.795-4.096 403.797-145.067 473.088-341.333H29.356C98.647 878.934 283.649 1019.904 502.444 1024z"/><path fill="#fefefe" d="M510.293 631.467c-65.877 0-119.467-53.589-119.467-119.467s53.589-119.467 119.467-119.467c23.893 0 46.08 7.168 64.853 19.115-25.941-26.624-62.123-43.008-102.4-43.008-79.189 0-143.36 64.171-143.36 143.36s64.171 143.36 143.36 143.36c40.277 0 76.459-16.384 102.4-43.008-18.773 12.288-40.96 19.115-64.853 19.115z"/><path fill="#fefefe" d="m672.084 566.613-39.253-18.091-15.019 40.277-15.019-40.277-39.253 17.749 17.749-39.253-40.277-15.019 40.277-15.019-17.749-39.253 39.253 17.749 15.019-40.277 15.36 40.277 38.912-17.749-17.749 39.253 40.277 15.019-40.277 15.36z"/></symbol><symbol id="svg-ca" viewBox="0 0 1024 1024"><path fill="#fff" d="M1024 512c0 282.77-229.23 512-512 512S0 794.77 0 512 229.23 0 512 0s512 229.23 512 512z"/><path fill="#e31e24" d="M847.872 125.611C955.733 219.478 1024 357.718 1024 512s-68.267 292.523-176.128 386.389V125.61zM502.784 763.563c.341-8.192.683-17.749 1.024-27.307.683 3.072 1.365 6.144 2.389 9.216.341.683 1.024 1.024.341 2.048-2.389 3.072-1.024 6.827-.341 10.24.683 2.731-.341 3.413-1.365 4.437-.683.341-1.365 1.024-2.048 1.365zm1.707-38.23c.683-21.163 1.707-43.349 2.389-58.709.341-6.827-5.12-12.288-11.947-11.264-30.037 3.755-91.477 12.288-114.688 15.701 7.509-24.917 8.192-27.307 9.557-31.403 2.731-7.851.341-14.336-5.803-19.456-3.413-2.731-111.275-90.112-116.053-94.549a7660.392 7660.392 0 0 1 23.211-10.581c8.192-3.755 9.557-6.485 7.168-15.701-9.557-35.499-16.725-60.757-20.139-74.069 37.547 7.509 17.749 3.413 64.853 13.653 9.216 1.707 13.312-.683 16.043-10.24 2.731-8.533 5.12-17.408 9.216-27.307 3.755 5.12 11.605 14.677 51.883 60.075 5.12 5.461 10.923 8.192 15.019 5.803 5.803-3.413 5.803-9.216 4.779-14.677-3.755-21.163-6.485-34.475-23.552-125.269 7.851 3.072-3.413-1.707 31.744 16.043 11.264 5.803 17.067 3.755 23.211-7.168 44.032-82.261 36.864-68.949 40.619-75.776 3.755 6.827-3.755-7.168 41.301 76.459 5.12 9.899 11.264 11.947 21.504 6.827 9.899-4.779 18.432-9.216 24.576-12.288 1.365 2.048 2.731 4.779 4.779 5.803l.341.341h1.024c-7.851 43.008-11.264 60.075-20.821 111.957-2.389 12.971 2.048 22.187 12.288 17.408 6.827-3.413 18.091-19.456 60.075-65.195 2.389 7.851 4.779 15.019 6.485 22.528 4.096 16.725 8.875 16.384 22.869 13.312 3.072-.683 54.955-11.947 59.392-11.947-3.072 12.288-9.216 34.475-19.797 72.704-2.731 10.581-1.707 12.629 8.192 17.067 7.168 3.413 13.995 6.827 21.845 10.24-2.389 2.048-12.971 10.923-26.965 22.187.341-.341.341-1.024.341-1.365-.683.683-1.024 1.707-1.707 2.731-33.451 27.307-85.333 68.949-89.088 72.363-5.12 4.437-6.485 10.24-4.779 16.384 7.509 24.917 7.168 22.528 9.899 33.109-80.555-11.264-93.867-13.312-112.299-15.701-8.875-1.024-13.653 3.413-13.653 12.288.683 23.211 1.024 41.301 1.365 55.637-3.755 1.024-7.851.341-11.947.683-1.365 0-2.389.341-2.731 1.365zm26.965-385.706zm97.28 326.997zM467.968 356.693zm1.024 2.731zm93.867 22.528zm-69.291-7.509zm-50.176 277.504zm35.499-277.163zm-179.542 73.387zm442.71 76.117zm-.342 0zm-368.64-102.4zm89.43-27.648zm196.949 46.763h-.341l.341.341v-.341zm-.683 3.072zm-34.133 6.144zm3.755-2.048zm-18.432 96.597zm-254.294 30.037zm29.014-137.557zm222.549 101.376zm-109.227 27.648zm-9.898 18.773zm-86.699-1.024zm38.571-177.152zm211.285 141.312zm-189.44-98.645zm139.264 34.133zM487.765 312.32zM176.128 125.611C68.267 219.478 0 357.718 0 512s68.267 292.523 176.128 386.389V125.61z"/></symbol><symbol style="enable-background:new 0 0 512 512" id="svg-cs" viewBox="0 0 512 512"><circle style="fill:#f0f0f0" cx="256" cy="256" r="256"/><path style="fill:#d80027" d="M233.739 256S75.13 437.055 74.98 437.019C121.306 483.346 185.307 512 256 512c141.384 0 256-114.616 256-256H233.739z"/><path style="fill:#0052b4" d="M74.98 74.98c-99.974 99.974-99.974 262.065 0 362.04L256 256 74.98 74.98z"/></symbol><symbol id="svg-de" viewBox="0 0 1024 1024"><path fill="#262523" d="M29.355 341.333h965.29C924.672 143.018 735.573.682 513.365 0h-2.731C288.426.683 99.327 143.019 29.354 341.333z"/><path fill="#d92227" d="M29.355 682.667h965.29C1013.76 629.419 1024 572.075 1024 512c0-59.733-10.24-117.419-29.355-170.667H29.355C10.582 394.581 0 452.266 0 512c0 60.075 10.581 117.419 29.355 170.667z"/><path fill="#f7d918" d="M502.443 1024h19.115c218.795-4.096 403.797-145.067 473.088-341.333H29.356C98.647 878.934 283.649 1019.904 502.444 1024z"/></symbol><symbol id="svg-dk" viewBox="0 0 1024 1024"><path fill="#c60c30" d="M1024.001 512c0 282.77-229.23 512-512 512s-512-229.23-512-512 229.23-512 512-512 512 229.23 512 512z"/><path fill="#fff" d="M470.358 1.707v381.952h537.258C1018.197 424.619 1024 467.627 1024 512s-5.803 87.381-16.384 128.341H470.358v381.952c-95.573-7.509-183.296-41.301-256.683-94.208V640.341H16.384C5.803 599.381 0 556.373 0 512s5.803-87.381 16.384-128.341h197.291V95.915C287.062 43.008 374.784 9.216 470.358 1.707z"/></symbol><symbol id="svg-el" viewBox="0 0 1024 1024"><path fill="#fff" d="M1024 512c0 282.77-229.23 512-512 512S0 794.77 0 512 229.23 0 512 0s512 229.23 512 512z"/><path fill="#0d5eaf" d="M512 0c121.856 0 233.813 42.667 321.877 113.664H548.522v114.005h389.12c23.552 34.816 43.008 73.045 57.003 113.664H548.522v113.664h472.405c2.048 18.773 3.072 37.888 3.072 57.003s-1.024 38.229-3.072 57.003H320.852V341.334h227.669V227.67H320.852V36.865C379.903 13.313 444.415.001 511.999.001zm482.645 682.667c-13.995 40.619-33.451 78.848-57.003 113.664H86.357c-23.552-34.816-43.008-73.045-57.003-113.664h965.291zM833.877 910.336C745.813 981.333 633.856 1024 512 1024s-233.813-42.667-321.877-113.664h643.755zM3.072 569.003C1.024 550.23 0 531.115 0 512c0-59.733 10.24-117.419 29.355-170.667h177.493v227.669H3.072zm83.285-341.334c32.427-49.152 73.387-91.819 120.491-126.976v126.976H86.357z"/></symbol><symbol id="svg-en" viewBox="0 0 1024 1024"><path fill="#33376f" d="M34.476 326.656h347.819V16.384C222.892 58.027 93.527 174.763 34.476 326.656z"/><path fill="#fefefe" d="m47.446 296.96 556.031 367.275 212.651-87.723-658.09-434.517c-46.08 44.032-83.627 96.597-110.592 154.965z"/><path fill="#cd252c" d="m56.662 277.845 558.42 368.64 34.816-52.224L88.747 223.573c-11.605 17.408-22.528 35.499-32.085 54.272z"/><path fill="#33376f" d="M649.217 326.656h340.309C931.499 177.152 805.206 61.781 649.217 18.432v308.224z"/><path fill="#fefefe" d="m978.604 300.715-550.571 363.52-212.651-87.723 653.652-431.445c45.397 44.373 82.944 96.939 109.568 155.648z"/><path fill="#cd252c" d="m969.388 281.6-552.96 364.885-34.816-52.224 556.031-367.275c11.605 17.408 22.187 35.84 31.744 54.613z"/><path fill="#33376f" d="M995.67 680.619H649.217v324.949c161.792-45.056 291.499-167.253 346.453-324.949z"/><path fill="#fefefe" d="M984.065 710.315 428.034 343.04l-212.651 87.723 663.551 438.272c44.373-45.397 80.213-99.328 105.131-158.72z"/><path fill="#cd252c" d="M975.532 729.771 416.429 360.79l-34.816 52.565 563.54 371.712c11.264-17.749 21.163-36.181 30.379-55.296z"/><path fill="#33376f" d="M382.294 1007.616V680.619H28.331c55.979 160.085 188.757 283.648 353.963 326.997z"/><path fill="#fefefe" d="M41.644 714.411 603.478 343.04l212.651 87.723-668.33 441.344c-44.373-45.397-80.896-98.645-106.155-157.696z"/><path fill="#cd252c" d="m50.177 733.525 564.906-372.736 34.816 52.565-568.66 375.467c-11.605-17.749-21.845-36.181-31.061-55.296z"/><path fill="#fefefe" d="M989.526 326.656H650.582V19.115C606.55 6.486 560.129 0 512.001 0c-46.08 0-90.795 6.144-133.461 17.749v308.907H34.476C12.289 384 .001 446.464.001 512c0 56.32 9.216 110.251 25.941 160.768h352.597v333.483C421.206 1017.856 465.92 1024 512 1024c48.128 0 94.208-6.485 138.581-19.115V672.768h347.477c16.725-50.517 25.941-104.448 25.941-160.768 0-65.536-12.288-128-34.475-185.344z"/><path fill="#cd252c" d="M1011.03 397.312H592.555V6.485C566.272 2.048 539.307 0 512 0c-25.6 0-51.2 2.048-75.776 5.461v391.851H12.971C4.438 434.176 0 472.747 0 512c0 30.72 2.731 60.757 7.851 90.112h428.373v416.427C460.8 1021.952 486.4 1024 512 1024c27.307 0 54.272-2.048 80.555-6.485V602.112h423.595c5.12-29.355 7.851-59.392 7.851-90.112 0-39.253-4.437-77.824-12.971-114.688z"/></symbol><symbol id="svg-es" viewBox="0 0 1024 1024"><path fill="#b1282f" d="M512 0c189.781 0 354.987 103.083 443.392 256H68.608C157.013 103.083 322.56 0 512 0zm489.472 662.528C936.96 871.765 742.4 1024 512 1024c-189.44 0-354.987-103.083-443.392-256h886.784c19.115-33.109 34.475-68.267 46.08-105.472z"/><path fill="#f2c20f" d="M68.608 768h886.784C999.083 692.565 1024 605.184 1024 512s-24.917-180.565-68.608-256H68.608C24.917 331.435 0 418.816 0 512s24.917 180.565 68.608 256z"/></symbol><symbol id="svg-eu" viewBox="0 0 1024 1024"><path fill="#003299" d="M1024 512c0 282.77-229.23 512-512 512S0 794.77 0 512 229.23 0 512 0s512 229.23 512 512z"/><path fill="#ffcb00" d="m206.171 330.663-38.985-.121 15.199 12.417c5.523 3.951 9.877 7.458 15.683 10.603l-11.651 38.783c11.208-6.168 20.722-15.723 32.373-22.093 12.417 6.491 21.327 16.086 33.018 22.052l-12.336-38.098c8.023-5.886 26.568-17.376 31.526-23.302l-38.864-.443-12.86-37.493-13.102 37.694zm585.897-.08-38.944.081c8.103 9.595 22.173 14.876 30.841 24.794l-11.691 36.929c10.845-5.12 21.81-17.456 32.897-22.133 11.53 5.846 20.077 15.642 31.929 22.012l-11.691-38.46c6.37-3.266 10.724-6.813 16.207-10.804 2.5-1.774 5.322-3.83 7.539-5.483 1.451-1.089 1.895-1.33 3.266-2.54l4.515-4.435-38.743-.04-12.78-37.251-13.344 37.332zM206.171 668.946l-38.985-.121c1.854 2.258.927 1.25 3.346 3.427l27.535 19.633-11.651 38.743c11.208-6.128 20.722-15.723 32.373-22.093 12.417 6.491 21.327 16.126 33.018 22.093l-12.336-38.138c8.023-5.886 26.568-17.335 31.526-23.262l-38.864-.443-12.86-37.533-13.102 37.694zm123.928-462.211-39.388.121c8.748 9.514 22.052 14.917 31.083 24.552l-11.611 36.808c6.168-1.492 23.947-17.295 32.655-21.851 11.409 5.563 20.077 15.884 32.01 21.891l-11.449-38.138c8.466-5.886 26.043-16.771 31.728-22.98l-39.509-.484-12.135-37.009-13.385 37.09zm338.283 0-39.388.121c8.748 9.514 22.052 14.917 31.123 24.552l-11.651 36.808c6.209-1.492 23.947-17.295 32.655-21.851 11.449 5.563 20.117 15.884 32.01 21.891l-11.449-38.138c8.506-5.886 26.084-16.771 31.728-22.98l-39.468-.484-12.175-37.009-13.385 37.09zm123.686 462.171-38.944.04c8.103 9.635 22.173 14.876 30.841 24.794l-11.691 36.929c10.845-5.12 21.81-17.456 32.897-22.133 11.53 5.846 20.077 15.683 31.929 22.012l-11.691-38.46 23.746-16.287c1.451-1.089 1.895-1.33 3.266-2.54l4.475-4.394-38.702-.04-12.78-37.291-13.344 37.372zM499.099 161.461l-38.944.081c8.708 9.555 23.181 15.562 30.841 24.753l-11.772 36.727c7.902-2.379 22.738-17.094 32.776-21.972 10.28 4.596 20.923 15.884 32.05 21.931l-11.248-36.606c9.151-9.998 22.939-15.36 31.163-24.471l-38.783-.605-12.578-36.888-13.506 37.049zM160.776 499.785l-38.904.04c8.708 9.555 23.141 15.602 30.841 24.794l-11.772 36.727c7.861-2.379 22.738-17.134 32.736-22.012 10.28 4.636 20.964 15.884 32.05 21.931l-11.248-36.606c9.192-9.998 22.98-15.36 31.163-24.431l-38.783-.605-12.538-36.929-13.546 37.09zm338.323 338.282-38.944.081c8.708 9.555 23.181 15.562 30.841 24.753l-11.772 36.727c7.902-2.379 22.738-17.094 32.776-22.012 10.28 4.636 20.923 15.924 32.05 21.972l-11.248-36.606c9.151-9.998 22.939-15.4 31.163-24.471l-38.783-.605-12.578-36.929-13.506 37.09zm338.283-338.282-38.944.04c8.748 9.555 23.181 15.602 30.881 24.794l-11.812 36.727c7.902-2.379 22.738-17.134 32.776-22.012 10.28 4.636 20.923 15.924 32.05 21.931l-11.248-36.606c9.151-9.998 22.939-15.36 31.163-24.431l-38.783-.605-12.578-36.929-13.506 37.09zM667.575 792.592h-37.936c2.177 2.741.685 1.089 3.346 3.548l27.374 19.754-11.853 38.178c12.417-6.41 20.682-14.594 32.615-21.73 12.215 6.773 20.037 14.917 32.091 21.851l-11.732-38.098 31.244-23.504h-38.017c-5.886-9.877-7.337-26.527-13.586-36.687-6.209 10.119-7.7 26.809-13.546 36.687zm-338.323 0h-37.896l7.66 7.136c2.137 1.693 4.999 3.749 7.499 5.523 5.241 3.669 10.28 7.66 15.521 10.643l-11.812 38.178c12.417-6.41 20.682-14.594 32.615-21.73 12.175 6.773 19.996 14.917 32.091 21.851l-11.732-38.098 26.769-18.867 1.129-1.008a29.07 29.07 0 0 0 1.089-1.169l-35.759-2.459c-5.886-9.877-7.378-26.527-13.586-36.687-6.209 10.119-7.7 26.809-13.586 36.687z"/></symbol><symbol id="svg-fi" viewBox="0 0 1024 1024"><path fill="#fff" d="M1024 512c0 282.77-229.23 512-512 512S0 794.77 0 512 229.23 0 512 0s512 229.23 512 512z"/><path fill="#003580" d="M1007.616 383.659C1018.197 424.619 1024 467.627 1024 512s-5.803 87.381-16.384 128.341H470.358v381.952c-95.573-7.509-183.296-41.301-256.683-94.208V640.341H16.384C5.803 599.381 0 556.373 0 512s5.803-87.381 16.384-128.341h197.291V95.915C287.062 43.008 374.784 9.216 470.358 1.707v381.952h537.258z"/></symbol><symbol style="shape-rendering:geometricPrecision;text-rendering:geometricPrecision;image-rendering:optimizeQuality;fill-rule:evenodd;clip-rule:evenodd" id="svg-fr" viewBox="0 0 793.74 793.74"><path d="M395.81 1.06c46.39 0 90.91 7.98 132.29 22.61v748.52c-41.38 14.63-85.9 22.61-132.29 22.61-46.39 0-90.91-7.98-132.29-22.61V23.67C304.9 9.04 349.42 1.06 395.81 1.06z" style="fill:#f8f8f9"/><path d="M263.52 772.19C109.39 717.71-1.06 570.72-1.06 397.93S109.39 78.15 263.52 23.67v748.52z" style="fill:#3d3e8b"/><path d="M528.1 772.19c154.13-54.48 264.58-201.47 264.58-374.26S682.23 78.15 528.1 23.67v748.52z" style="fill:#d32333"/></symbol><symbol id="svg-is" viewBox="0 0 1024 1024"><path fill="#343a85" d="M506.197 1024h11.605c279.893-3.072 506.197-231.083 506.197-512 0-282.624-229.035-511.659-511.317-512h-1.365C229.034.341 0 229.376 0 512c0 280.917 226.304 508.928 506.197 512z"/><path fill="#fefefe" d="M260.096 957.781V66.218C155.989 124.927 74.752 219.135 32.427 332.117v359.765C74.752 804.863 155.99 899.071 260.096 957.781z"/><path fill="#fefefe" d="M12.629 625.664h998.741c8.192-36.523 12.629-74.411 12.629-113.664s-4.437-77.141-12.629-113.664H12.629C4.437 434.859 0 472.747 0 512s4.437 77.141 12.629 113.664z"/><path fill="#c52734" d="M203.093 920.235V103.766c-44.032 33.109-82.261 73.387-113.664 119.125V801.11c31.403 45.739 69.632 86.016 113.664 119.125z"/><path fill="#c52734" d="M3.413 569.003h1017.173c2.389-18.773 3.413-37.888 3.413-57.003s-1.024-38.229-3.413-56.661H3.413C1.024 473.771 0 492.886 0 512s1.024 38.229 3.413 57.003z"/></symbol><symbol id="svg-it" viewBox="0 0 1024 1024"><path fill="#3d9042" d="M219.477 932.182V91.82C87.04 184.321 0 337.921 0 512.001s87.04 327.68 219.477 420.181z"/><path fill="#f8f8f9" d="M508.245 1024h7.509c107.179-.683 206.848-34.475 288.768-91.819V91.819C722.261 34.475 622.591.683 515.071 0h-6.144c-107.52.683-207.189 34.475-289.451 91.819v840.362c81.92 57.344 181.589 91.136 288.768 91.819z"/><path fill="#d32333" d="M804.523 91.82v840.362C936.96 839.681 1024 686.081 1024 512.001S936.96 184.321 804.523 91.82z"/></symbol><symbol id="svg-kz" viewBox="0 0 1024 1024"><path fill="#56aec7" d="M1024 512c0 282.77-229.23 512-512 512S0 794.77 0 512 229.23 0 512 0s512 229.23 512 512z"/></symbol><symbol style="shape-rendering:geometricPrecision;text-rendering:geometricPrecision;image-rendering:optimizeQuality;fill-rule:evenodd;clip-rule:evenodd" id="svg-nl" viewBox="0 0 254 254"><circle cx="127" cy="127" r="127" style="fill:#21468c"/><path d="M127 0c55.29 0 102.32 35.34 119.76 84.66H7.24C24.68 35.34 71.71 0 127 0z" style="fill:#ae1c27"/><path d="M246.76 84.66C251.44 97.9 254 112.15 254 127c0 14.84-2.56 29.09-7.24 42.33H7.24A126.794 126.794 0 0 1 0 127c0-14.85 2.56-29.1 7.24-42.34h239.52z" style="fill:#fff"/></symbol><symbol style="shape-rendering:geometricPrecision;text-rendering:geometricPrecision;image-rendering:optimizeQuality;fill-rule:evenodd;clip-rule:evenodd" id="svg-no" viewBox="0 0 793.74 793.74"><g id="Слой_x0020_1"><g id="_1785839970352"><path d="M774.14 298.23C730.09 127.05 574.6.53 389.74.53v297.7h384.4zM5.34 496.57c26.75 104.2 94.94 191.9 185.86 244.6v-244.6H5.34zm768.8 0h-384.4v297.7c184.86 0 340.35-126.52 384.4-297.7zM191.4 53.63c-91.12 52.7-159.11 140.2-186.06 244.6H191.2l.2-244.6z" style="fill:#ef2b2d;fill-rule:nonzero"/><path d="M340.06 794.27h49.68c-16.9 0-33.39-1-49.68-3.01v3.01zM389.74.53h-49.68v3.01C356.35 1.53 372.84.53 389.74.53z" style="fill:#fff;fill-rule:nonzero"/><path d="M191.4 447.08H-4.12c2.01 16.9 5.23 33.4 9.46 49.69H191.2v244.6c15.89 9.25 32.39 17.3 49.69 24.14V447.08H191.4zm582.74-148.85h-384.4V.53c-16.9 0-33.39 1-49.68 3.01v344.38H783.6c-2.21-17.1-5.23-33.6-9.46-49.69zM191.4 53.63v244.6H5.34c-4.23 16.09-7.25 32.79-9.46 49.69h245.01V29.49c-17.1 6.84-33.8 14.89-49.49 24.14zm198.34 393.45h-49.68v344.18c16.29 2.01 32.78 3.01 49.68 3.01v-297.7h384.4c4.23-16.09 7.25-32.79 9.46-49.69H389.74v.2z" style="fill:#f0f0f0;fill-rule:nonzero"/><path d="M783.6 347.71H340.06V3.54c-34.6 4.23-67.99 13.08-99.17 25.75v318.63H-4.12c-2.01 16.29-3.01 32.78-3.01 49.68s1 33.39 3.01 49.69h245.01v318.42c31.38 12.67 64.57 21.52 99.17 25.75V447.08H783.6c2.01-16.29 3.02-32.78 3.02-49.68s-1.01-33.39-3.02-49.69z" style="fill:#002868;fill-rule:nonzero"/></g></g></symbol><symbol id="svg-pl" viewBox="0 0 1024 1024"><path fill="#fff" d="M1024 512c0 282.77-229.23 512-512 512S0 794.77 0 512 229.23 0 512 0s512 229.23 512 512z"/><path fill="#e40001" d="M0 512h1024c0 282.624-229.376 512-512 512S0 794.624 0 512z"/></symbol><symbol id="svg-pt" viewBox="0 0 1024 1024"><path fill="#326e32" d="M1024 512c0 282.77-229.23 512-512 512S0 794.77 0 512 229.23 0 512 0s512 229.23 512 512z"/><path fill="#df2329" d="M501.077 1024h22.187C800.768 1018.197 1024 791.211 1024 512 1024 229.376 794.965 0 512 0c-96.597 0-186.709 26.624-263.851 73.045v877.909c74.069 44.715 160.427 70.997 252.928 73.045z"/></symbol><symbol id="svg-ru" viewBox="0 0 1024 1024"><path fill="#fff" d="M1024 512c0 282.77-229.23 512-512 512S0 794.77 0 512 229.23 0 512 0s512 229.23 512 512z"/><path fill="#d52b1e" d="M994.987 682.667C924.672 881.664 734.891 1024 512 1024S99.328 881.664 29.013 682.667h965.973z"/><path fill="#0039a6" d="M994.645 341.333C1013.76 394.581 1024 452.266 1024 512s-10.24 117.419-29.013 170.667H29.014C10.241 629.419.001 571.734.001 512s10.24-117.419 29.355-170.667h965.291z"/></symbol><symbol id="svg-tr" viewBox="0 0 1024 1024"><path fill="#cf252a" d="M503.808 1024h16.384C799.061 1019.563 1024 792.235 1024 512 1024 229.376 794.965 0 512 0 229.376 0 0 229.376 0 512c0 280.235 224.939 507.563 503.808 512z"/><path fill="#fefefe" d="M146.432 256c141.312 0 256 114.688 256 256s-114.688 256-256 256c-30.379 0-59.392-5.12-86.357-15.019C21.846 681.301 0 599.04 0 512s21.845-169.301 60.416-240.981C87.04 261.12 116.053 256 146.432 256z"/><path fill="#cf252a" d="M210.261 307.2c112.981 0 204.8 91.819 204.8 204.8s-91.819 204.8-204.8 204.8c-112.981 0-204.8-91.819-204.8-204.8s91.819-204.8 204.8-204.8z"/><path fill="#fefefe" d="m362.837 512 121.515 39.595 19.456-61.099L362.837 512z"/><path fill="#fefefe" d="m362.837 512 121.515-39.595 19.456 60.757-140.971-21.163z"/><path fill="#fefefe" d="M451.243 390.144v128h63.829l-63.829-128z"/><path fill="#fefefe" d="m451.243 390.144 75.093 103.765-51.883 37.547-23.211-141.312z"/><path fill="#fefefe" d="m451.243 633.856 75.093-103.765-51.883-37.547-23.211 141.312z"/><path fill="#fefefe" d="M451.243 633.856v-128h63.829l-63.829 128z"/><path fill="#fefefe" d="M594.261 436.565 472.405 476.16l19.797 61.099 102.059-100.693z"/><path fill="#fefefe" d="M594.261 436.565 518.826 540.33l-51.541-37.547 126.976-66.219z"/><path fill="#fefefe" d="m594.261 587.093-75.435-103.424-51.541 37.547 126.976 65.877z"/><path fill="#fefefe" d="M594.261 587.093 472.405 547.84l19.797-61.099 102.059 100.352z"/></symbol><symbol id="svg-uz" viewBox="0 0 1024 1024"><path fill="#fff" d="M1024 512c0 282.77-229.23 512-512 512S0 794.77 0 512 229.23 0 512 0s512 229.23 512 512z"/><path fill="#52ad3a" d="M997.035 676.523C928.427 878.592 737.28 1024 512 1024S95.573 878.592 26.965 676.523h970.069z"/><path fill="#bc2833" d="M997.035 347.477c2.048 6.144 4.096 12.288 5.803 18.432H21.163c1.707-6.144 3.755-12.288 5.803-18.432h970.069zm5.802 310.614c-1.707 6.144-3.755 12.288-5.803 18.432H26.965c-2.048-6.144-4.096-12.288-5.803-18.432h981.675z"/><path fill="#4998b4" d="M26.965 347.477h970.069C928.426 145.408 737.279 0 511.999 0S95.572 145.408 26.964 347.477z"/><path fill="#fefefe" d="M439.296 201.387c0 60.416-48.811 109.568-109.568 109.568-60.416 0-109.568-49.152-109.568-109.568S269.312 91.819 329.728 91.819c60.757 0 109.568 49.152 109.568 109.568z"/><path fill="#4998b4" d="M470.357 201.387c0 50.517-40.96 91.477-91.136 91.477-50.517 0-91.477-40.96-91.477-91.477s40.96-91.477 91.477-91.477c50.176 0 91.136 40.96 91.136 91.477z"/><path fill="#fefefe" d="m607.573 91.819-6.827 20.821 10.581 3.413z"/><path fill="#fefefe" d="m607.573 91.819 6.827 20.821-10.581 3.413z"/><path fill="#fefefe" d="M628.395 106.837H606.55v10.923z"/><path fill="#fefefe" d="m628.395 106.837-17.749 12.971-6.485-8.875z"/><path fill="#fefefe" d="m586.752 106.837 17.749 12.971 6.144-8.875z"/><path fill="#fefefe" d="M586.752 106.837h21.845v10.923z"/><path fill="#fefefe" d="m620.544 131.413-6.827-20.821-10.581 3.413z"/><path fill="#fefefe" d="m620.544 131.413-17.749-12.971 6.485-8.875z"/><path fill="#fefefe" d="m594.603 131.413 17.749-12.971-6.485-8.875z"/><path fill="#fefefe" d="m594.603 131.413 6.827-20.821 10.24 3.413zm100.693-39.594-6.827 20.821 10.24 3.413z"/><path fill="#fefefe" d="m695.296 91.819 6.827 20.821-10.581 3.413z"/><path fill="#fefefe" d="M716.117 106.837h-21.845v10.923z"/><path fill="#fefefe" d="m716.117 106.837-17.749 12.971-6.485-8.875z"/><path fill="#fefefe" d="m674.475 106.837 17.749 12.971 6.485-8.875z"/><path fill="#fefefe" d="M674.475 106.837h21.845v10.923z"/><path fill="#fefefe" d="m707.925 131.413-6.485-20.821-10.581 3.413z"/><path fill="#fefefe" d="m707.925 131.413-17.408-12.971 6.144-8.875z"/><path fill="#fefefe" d="m682.325 131.413 17.749-12.971-6.485-8.875z"/><path fill="#fefefe" d="m682.325 131.413 6.827-20.821 10.24 3.413zm100.694-39.594-6.827 20.821 10.24 3.413z"/><path fill="#fefefe" d="m783.019 91.819 6.827 20.821-10.581 3.413z"/><path fill="#fefefe" d="M803.84 106.837h-21.845v10.923z"/><path fill="#fefefe" d="m803.84 106.837-17.749 12.971-6.485-8.875z"/><path fill="#fefefe" d="m762.197 106.837 17.749 12.971 6.485-8.875z"/><path fill="#fefefe" d="M762.197 106.837h21.845v10.923z"/><path fill="#fefefe" d="m795.648 131.413-6.485-20.821-10.581 3.413z"/><path fill="#fefefe" d="m795.648 131.413-17.408-12.971 6.144-8.875z"/><path fill="#fefefe" d="m770.048 131.413 17.749-12.971-6.485-8.875z"/><path fill="#fefefe" d="m770.048 131.413 6.827-20.821 10.24 3.413zm-250.197 48.128-6.827 20.821 10.581 3.413z"/><path fill="#fefefe" d="m519.851 179.541 6.827 20.821-10.581 3.413z"/><path fill="#fefefe" d="M540.672 194.56h-21.845v10.923z"/><path fill="#fefefe" d="m540.672 194.56-17.749 12.971-6.485-8.875z"/><path fill="#fefefe" d="m499.029 194.56 17.749 12.971 6.485-8.875z"/><path fill="#fefefe" d="M499.029 194.56h21.845v10.923z"/><path fill="#fefefe" d="m532.821 219.136-6.827-20.821-10.581 3.413z"/><path fill="#fefefe" d="m532.821 219.136-17.749-12.971 6.485-8.875z"/><path fill="#fefefe" d="m506.88 219.136 17.749-12.971-6.485-8.875z"/><path fill="#fefefe" d="m506.88 219.136 6.827-20.821 10.581 3.413zm100.693-39.595-6.827 20.821 10.581 3.413z"/><path fill="#fefefe" d="m607.573 179.541 6.827 20.821-10.581 3.413z"/><path fill="#fefefe" d="M628.395 194.56H606.55v10.923z"/><path fill="#fefefe" d="m628.395 194.56-17.749 12.971-6.485-8.875z"/><path fill="#fefefe" d="m586.752 194.56 17.749 12.971 6.144-8.875z"/><path fill="#fefefe" d="M586.752 194.56h21.845v10.923z"/><path fill="#fefefe" d="m620.544 219.136-6.827-20.821-10.581 3.413z"/><path fill="#fefefe" d="m620.544 219.136-17.749-12.971 6.485-8.875z"/><path fill="#fefefe" d="m594.603 219.136 17.749-12.971-6.485-8.875z"/><path fill="#fefefe" d="m594.603 219.136 6.827-20.821 10.24 3.413zm100.693-39.595-6.827 20.821 10.24 3.413z"/><path fill="#fefefe" d="m695.296 179.541 6.827 20.821-10.581 3.413z"/><path fill="#fefefe" d="M716.117 194.56h-21.845v10.923z"/><path fill="#fefefe" d="m716.117 194.56-17.749 12.971-6.485-8.875z"/><path fill="#fefefe" d="m674.475 194.56 17.749 12.971 6.485-8.875z"/><path fill="#fefefe" d="M674.475 194.56h21.845v10.923z"/><path fill="#fefefe" d="m707.925 219.136-6.485-20.821-10.581 3.413z"/><path fill="#fefefe" d="m707.925 219.136-17.408-12.971 6.144-8.875z"/><path fill="#fefefe" d="m682.325 219.136 17.749-12.971-6.485-8.875z"/><path fill="#fefefe" d="m682.325 219.136 6.827-20.821 10.24 3.413zm100.694-39.595-6.827 20.821 10.24 3.413z"/><path fill="#fefefe" d="m783.019 179.541 6.827 20.821-10.581 3.413z"/><path fill="#fefefe" d="M803.84 194.56h-21.845v10.923z"/><path fill="#fefefe" d="m803.84 194.56-17.749 12.971-6.485-8.875z"/><path fill="#fefefe" d="m762.197 194.56 17.749 12.971 6.485-8.875z"/><path fill="#fefefe" d="M762.197 194.56h21.845v10.923z"/><path fill="#fefefe" d="m795.648 219.136-6.485-20.821-10.581 3.413z"/><path fill="#fefefe" d="m795.648 219.136-17.408-12.971 6.144-8.875z"/><path fill="#fefefe" d="m770.048 219.136 17.749-12.971-6.485-8.875z"/><path fill="#fefefe" d="m770.048 219.136 6.827-20.821 10.24 3.413zm-337.92 48.128-6.827 20.821 10.581 3.413z"/><path fill="#fefefe" d="m432.128 267.264 6.827 20.821-10.581 3.413z"/><path fill="#fefefe" d="M452.949 282.283h-21.845v10.923z"/><path fill="#fefefe" d="M452.949 282.283 435.2 295.254l-6.485-8.875z"/><path fill="#fefefe" d="m411.307 282.283 17.749 12.971 6.485-8.875z"/><path fill="#fefefe" d="M411.307 282.283h21.845v10.923z"/><path fill="#fefefe" d="m445.099 306.859-6.827-20.821-10.581 3.413z"/><path fill="#fefefe" d="m445.099 306.859-17.749-12.971 6.485-8.875z"/><path fill="#fefefe" d="m419.157 306.859 17.749-12.971-6.485-8.875z"/><path fill="#fefefe" d="m419.157 306.859 6.827-20.821 10.581 3.413zm100.694-39.595-6.827 20.821 10.581 3.413z"/><path fill="#fefefe" d="m519.851 267.264 6.827 20.821-10.581 3.413z"/><path fill="#fefefe" d="M540.672 282.283h-21.845v10.923z"/><path fill="#fefefe" d="m540.672 282.283-17.749 12.971-6.485-8.875z"/><path fill="#fefefe" d="m499.029 282.283 17.749 12.971 6.485-8.875z"/><path fill="#fefefe" d="M499.029 282.283h21.845v10.923z"/><path fill="#fefefe" d="m532.821 306.859-6.827-20.821-10.581 3.413z"/><path fill="#fefefe" d="m532.821 306.859-17.749-12.971 6.485-8.875z"/><path fill="#fefefe" d="m506.88 306.859 17.749-12.971-6.485-8.875z"/><path fill="#fefefe" d="m506.88 306.859 6.827-20.821 10.581 3.413zm100.693-39.595-6.827 20.821 10.581 3.413z"/><path fill="#fefefe" d="m607.573 267.264 6.827 20.821-10.581 3.413z"/><path fill="#fefefe" d="M628.395 282.283H606.55v10.923z"/><path fill="#fefefe" d="m628.395 282.283-17.749 12.971-6.485-8.875z"/><path fill="#fefefe" d="m586.752 282.283 17.749 12.971 6.144-8.875z"/><path fill="#fefefe" d="M586.752 282.283h21.845v10.923z"/><path fill="#fefefe" d="m620.544 306.859-6.827-20.821-10.581 3.413z"/><path fill="#fefefe" d="m620.544 306.859-17.749-12.971 6.485-8.875z"/><path fill="#fefefe" d="m594.603 306.859 17.749-12.971-6.485-8.875z"/><path fill="#fefefe" d="m594.603 306.859 6.827-20.821 10.24 3.413zm100.693-39.595-6.827 20.821 10.24 3.413z"/><path fill="#fefefe" d="m695.296 267.264 6.827 20.821-10.581 3.413z"/><path fill="#fefefe" d="M716.117 282.283h-21.845v10.923z"/><path fill="#fefefe" d="m716.117 282.283-17.749 12.971-6.485-8.875z"/><path fill="#fefefe" d="m674.475 282.283 17.749 12.971 6.485-8.875z"/><path fill="#fefefe" d="M674.475 282.283h21.845v10.923z"/><path fill="#fefefe" d="m707.925 306.859-6.485-20.821-10.581 3.413z"/><path fill="#fefefe" d="m707.925 306.859-17.408-12.971 6.144-8.875z"/><path fill="#fefefe" d="m682.325 306.859 17.749-12.971-6.485-8.875z"/><path fill="#fefefe" d="m682.325 306.859 6.827-20.821 10.24 3.413zm100.694-39.595-6.827 20.821 10.24 3.413z"/><path fill="#fefefe" d="m783.019 267.264 6.827 20.821-10.581 3.413z"/><path fill="#fefefe" d="M803.84 282.283h-21.845v10.923z"/><path fill="#fefefe" d="m803.84 282.283-17.749 12.971-6.485-8.875z"/><path fill="#fefefe" d="m762.197 282.283 17.749 12.971 6.485-8.875z"/><path fill="#fefefe" d="M762.197 282.283h21.845v10.923z"/><path fill="#fefefe" d="m795.648 306.859-6.485-20.821-10.581 3.413z"/><path fill="#fefefe" d="m795.648 306.859-17.408-12.971 6.144-8.875z"/><path fill="#fefefe" d="m770.048 306.859 17.749-12.971-6.485-8.875z"/><path fill="#fefefe" d="m770.048 306.859 6.827-20.821 10.24 3.413z"/></symbol></svg>